<svg width="95" height="95" viewBox="0 0 95 95" fill="none" xmlns="http://www.w3.org/2000/svg">
<path d="M47.0533 24.0766C45.0188 24.0766 42.9722 24.3485 40.9569 24.902C28.7521 28.2462 21.5415 40.9034 24.8834 53.117C26.5024 59.0339 30.3266 63.9653 35.6519 67.0028C40.9769 70.0403 47.1647 70.8213 53.0779 69.2013C65.2829 65.8572 72.4932 53.2 69.1514 40.9863C67.5326 35.0695 63.708 30.1381 58.3829 27.1006C54.8729 25.0988 50.987 24.0766 47.0533 24.0766ZM46.98 70.8811C42.8993 70.8811 38.87 69.8204 35.229 67.7433C29.7056 64.594 25.7393 59.4775 24.0601 53.3427C20.5942 40.6739 28.0728 27.5461 40.7314 24.0785C46.8629 22.3987 53.2822 23.2087 58.806 26.3581C64.329 29.5094 68.2957 34.6239 69.9747 40.7607C73.4407 53.4294 65.9621 66.5553 53.3034 70.0248C51.2136 70.5976 49.0896 70.8811 46.98 70.8811ZM31.1539 91.0443L39.2773 93.1754L43.6788 84.6781C43.7579 84.5258 43.9236 84.439 44.0912 84.4486C46.1372 84.6106 48.2413 84.5952 50.3455 84.4042C50.5129 84.3907 50.6797 84.4775 50.7607 84.628L55.2605 93.0886L63.3601 90.8688L62.9252 81.2954C62.9175 81.1237 63.0132 80.9637 63.168 80.8904C65.0754 79.982 66.894 78.9213 68.5734 77.741C68.7136 77.6427 68.8992 77.6369 69.045 77.7275L77.1579 82.7958L83.0637 76.8211L77.9023 68.7462C77.8103 68.6015 77.8132 68.4164 77.91 68.2737C79.0855 66.5592 80.1267 64.7328 81.0046 62.8428C81.0765 62.6885 81.2326 62.5902 81.4063 62.596L90.9794 62.9257L93.1087 54.7968L84.6172 50.392C84.465 50.3129 84.375 50.1509 84.3881 49.9792C84.5485 47.933 84.5333 45.8251 84.343 43.721C84.3275 43.5494 84.416 43.3855 84.5674 43.3045L93.0213 38.8032L90.8035 30.6974L81.2368 31.1313C81.0731 31.139 80.9059 31.0445 80.8322 30.8883C79.9233 28.979 78.8643 27.1585 77.6846 25.4806C77.5858 25.3398 77.581 25.1547 77.6717 25.0081L82.7367 16.8888L76.766 10.9797L68.6963 16.1444C68.5516 16.237 68.3661 16.2331 68.2247 16.1367C66.5085 14.9583 64.6823 13.9169 62.7968 13.0394C62.6417 12.968 62.5445 12.8099 62.5503 12.6382L62.8807 3.05708L54.7573 0.926011L50.3561 9.42525C50.2771 9.57761 50.1156 9.6663 49.9436 9.6528C47.8959 9.49273 45.7916 9.50816 43.6891 9.69909C43.5195 9.71259 43.3545 9.62582 43.2738 9.47346L38.7745 1.01476L30.6747 3.23453L31.1092 12.808C31.1169 12.9796 31.0212 13.1378 30.8664 13.213C28.9604 14.1213 27.1417 15.1801 25.4616 16.3623C25.3213 16.4607 25.1354 16.4664 24.9898 16.3739L16.8769 11.3056L10.971 17.2823L16.1321 25.3572C16.2243 25.5018 16.2212 25.687 16.1244 25.8278C14.9478 27.5461 13.9065 29.3724 13.03 31.2605C12.9579 31.4148 12.8042 31.517 12.6283 31.5074L3.05523 31.1757L0.926274 39.3065L9.41758 43.7114C9.56975 43.7904 9.66 43.9525 9.64669 44.1222C9.48643 46.1684 9.50147 48.2744 9.69163 50.3823C9.70706 50.554 9.61854 50.716 9.46714 50.797L1.01325 55.3002L3.2313 63.406L12.7978 62.9701C12.9712 62.9663 13.1289 63.0588 13.2026 63.2131C14.1111 65.1243 15.1701 66.943 16.3502 68.6228C16.449 68.7635 16.4538 68.9487 16.3633 69.0933L11.2983 77.2145L17.2688 83.1237L25.3383 77.959C25.483 77.8664 25.6685 77.8703 25.8101 77.9667C27.5247 79.1431 29.3509 80.1865 31.2376 81.064C31.3929 81.1353 31.4899 81.2935 31.4841 81.4651L31.1539 91.0443ZM39.4992 94.103C39.4636 94.103 39.4269 94.0973 39.391 94.0876L30.6074 91.7849C30.4143 91.7328 30.2822 91.5554 30.2892 91.3567L30.6213 81.7178C28.868 80.8846 27.1683 79.9164 25.5611 78.8307L17.4414 84.0262C17.2734 84.1342 17.053 84.1111 16.911 83.9703L10.4552 77.581C10.3136 77.4402 10.2879 77.2203 10.3934 77.0506L15.4897 68.8812C14.3997 67.3036 13.4136 65.6084 12.5546 63.836L2.92929 64.2738C2.73161 64.2815 2.5509 64.1523 2.49825 63.9614L0.100077 55.196C0.047427 55.0032 0.135176 54.8007 0.311062 54.7062L8.81702 50.176C8.65406 48.2127 8.63959 46.2513 8.7744 44.3382L0.230256 39.9063C0.0532127 39.8157 -0.0366673 39.6132 0.0140541 39.4203L2.316 30.6299C2.36653 30.437 2.54762 30.3059 2.74375 30.3117L12.3762 30.6434C13.2064 28.8903 14.1758 27.1893 15.2612 25.5809L10.0681 17.4539C9.96086 17.2861 9.98401 17.0662 10.1242 16.9235L16.5097 10.4628C16.6501 10.322 16.8702 10.295 17.0395 10.4011L25.2031 15.5022C26.7815 14.4106 28.4746 13.4232 30.2436 12.5649L29.8064 2.93173C29.7974 2.73308 29.9277 2.55375 30.12 2.50168L38.8782 0.100605C39.0717 0.0485335 39.2742 0.135319 39.3679 0.312748L43.8948 8.82351C45.8547 8.66151 47.8141 8.6461 49.7276 8.7811L54.1562 0.231725C54.2482 0.0542966 54.4497 -0.0363237 54.6437 0.0138192L63.4272 2.31846C63.6203 2.36861 63.7524 2.54602 63.7456 2.74659L63.4131 12.3856C65.1653 13.2168 66.8653 14.1869 68.4735 15.2727L76.5934 10.0771C76.7618 9.96908 76.982 9.99223 77.1237 10.133L83.5796 16.5224C83.7212 16.6632 83.7468 16.883 83.6415 17.0508L78.5451 25.2222C79.6349 26.7997 80.6208 28.493 81.48 30.2673L91.1057 29.8276C91.3051 29.8238 91.4841 29.9491 91.5365 30.1419L93.9345 38.9073C93.9874 39.1002 93.8996 39.3027 93.7237 39.3953L85.2178 43.9255C85.3805 45.8888 85.395 47.8501 85.2602 49.7632L93.8045 54.1951C93.9818 54.2877 94.0715 54.4902 94.0209 54.683L91.7186 63.4735C91.6682 63.6663 91.4885 63.8013 91.2908 63.7917L81.6582 63.458C80.8268 65.215 79.8577 66.9159 78.7733 68.5224L83.9667 76.6495C84.0741 76.8172 84.0508 77.0371 83.9108 77.1798L77.5251 83.6386C77.3849 83.7813 77.1648 83.8064 76.9953 83.7003L68.8317 78.6012C67.2543 79.6928 65.561 80.6802 63.7908 81.5384L64.2284 91.1716C64.2374 91.3702 64.107 91.5496 63.9148 91.6017L55.1565 94.0008C54.9635 94.0548 54.7606 93.9661 54.6671 93.7906L50.1398 85.2798C48.1788 85.4418 46.2194 85.4553 44.3074 85.3203L39.8784 93.8716C39.8036 94.0162 39.6558 94.103 39.4992 94.103Z" fill="black"/>
</svg>
