<svg width="129" height="91" viewBox="0 0 129 91" fill="none" xmlns="http://www.w3.org/2000/svg">
<path d="M8.55236 40.026L12.8511 40L12.9909 63.0962L8.69222 63.1222C4.5208 63.1475 1.1196 59.7853 1.09435 55.6158L1.04594 47.622C1.02069 43.4525 4.38094 40.0513 8.55236 40.026Z" fill="white"/>
<path d="M120.299 63.0967H116V40.0001H120.299C124.47 40.0001 127.851 43.3828 127.851 47.5524V55.5463C127.851 59.7159 124.47 63.0967 120.299 63.0967Z" fill="white"/>
<path d="M116.987 62.9933H120.86C124.788 62.9933 127.984 59.7977 127.984 55.8692V47.8752C127.984 43.9467 124.788 40.7511 120.86 40.7511H116.987V62.9933ZM120.86 63.8477H116.561C116.326 63.8477 116.135 63.6567 116.135 63.4195V40.3229C116.135 40.0876 116.326 39.8967 116.561 39.8967H120.86C125.259 39.8967 128.838 43.4762 128.838 47.8752V55.8692C128.838 60.2682 125.259 63.8477 120.86 63.8477Z" fill="black"/>
<path d="M7.9785 40.7511C4.04981 40.7511 0.853779 43.9467 0.853779 47.8752V55.8692C0.853779 59.7977 4.04981 62.9933 7.9785 62.9933H11.8505V40.7511H7.9785ZM12.2775 63.8477H7.9785C3.57924 63.8477 0 60.2682 0 55.8692V47.8752C0 43.4762 3.57924 39.8967 7.9785 39.8967H12.2775C12.5131 39.8967 12.7041 40.0876 12.7041 40.3229V63.4195C12.7041 63.6567 12.5131 63.8477 12.2775 63.8477Z" fill="black"/>
<path d="M8.54443 50.9189C8.54443 26.1001 33.5605 0.426976 64.4194 0.426976C95.2785 0.426976 120.295 26.1001 120.295 50.9189C120.295 75.7358 95.2785 90.3022 64.4194 90.3022C33.5605 90.3022 8.54443 75.7358 8.54443 50.9189Z" fill="white"/>
<path d="M64.4194 0.854682C32.6842 0.854682 8.97126 27.2858 8.97126 50.9185C8.97126 62.5998 14.5645 72.505 25.1468 79.5616C35.1186 86.2133 49.0659 89.8756 64.4194 89.8756C79.773 89.8756 93.7204 86.2133 103.692 79.5616C114.274 72.505 119.869 62.5998 119.869 50.9185C119.869 27.2858 96.1548 0.854682 64.4194 0.854682ZM64.4194 90.73C48.8992 90.73 34.7838 87.0156 24.6729 80.2713C13.8424 73.0488 8.11768 62.8988 8.11768 50.9185C8.11768 38.6354 14.1315 25.928 24.6174 16.0557C35.6131 5.70119 49.7484 0.000328999 64.4194 0.000328999C79.0908 0.000328999 93.2261 5.70119 104.222 16.0557C114.708 25.928 120.721 38.6354 120.721 50.9185C120.721 62.8988 114.997 73.0488 104.166 80.2713C94.0554 87.0156 79.9396 90.73 64.4194 90.73Z" fill="black"/>
<path d="M44.8305 71.2561L44.8305 71.2561C52.2409 72.6487 63.6489 73.3491 75.0817 73.3491C86.5145 73.3491 97.9226 72.6487 105.333 71.2561C107.271 70.8918 108.834 69.5896 109.923 67.7856C111.013 65.9802 111.606 63.7057 111.606 61.4913V54.3768C111.606 48.5924 107.263 43.9707 101.985 43.9707H48.1786C42.8994 43.9707 38.5576 48.5923 38.5576 54.3768V61.4913C38.5576 63.7057 39.15 65.9802 40.2402 67.7857C41.3295 69.5895 42.8922 70.8918 44.8305 71.2561Z" fill="#FADCFF" stroke="black"/>
<path d="M59.0476 60.9429C60.6097 60.9429 61.9384 59.5672 61.9384 57.7882C61.9384 56.0114 60.6099 54.6355 59.0476 54.6355C57.4854 54.6355 56.1567 56.0114 56.1567 57.7882C56.1567 59.5672 57.4856 60.9429 59.0476 60.9429Z" fill="white" stroke="black"/>
<path d="M95.1232 60.9429C96.6852 60.9429 98.014 59.5672 98.014 57.7882C98.014 56.0114 96.6853 54.6355 95.1232 54.6355C93.5609 54.6355 92.2324 56.0114 92.2324 57.7882C92.2324 59.5672 93.5611 60.9429 95.1232 60.9429Z" fill="white" stroke="black"/>
</svg>
