<svg width="350" height="354" viewBox="0 0 350 354" fill="none" xmlns="http://www.w3.org/2000/svg">
<g clip-path="url(#clip0_1123_3160)">
<path d="M71.1817 31.8168C69.1472 31.8168 67.1006 32.0888 65.0853 32.6423C52.8805 35.9864 45.67 48.6436 49.0118 60.8573C50.6308 66.7741 54.455 71.7055 59.7804 74.743C65.1053 77.7805 71.2932 78.5616 77.2064 76.9416C89.4113 73.5974 96.6217 60.9402 93.2798 48.7266C91.661 42.8097 87.8364 37.8783 82.5113 34.8408C79.0013 32.839 75.1154 31.8168 71.1817 31.8168ZM71.1084 78.6213C67.0277 78.6213 62.9984 77.5606 59.3574 75.4836C53.834 72.3342 49.8677 67.2177 48.1885 61.0829C44.7226 48.4141 52.2013 35.2863 64.8598 31.8187C70.9913 30.139 77.4106 30.949 82.9344 34.0983C88.4574 37.2496 92.4241 42.3642 94.1031 48.5009C97.5692 61.1697 90.0906 74.2955 77.4318 77.765C75.342 78.3378 73.2181 78.6213 71.1084 78.6213ZM55.2823 98.7846L63.4057 100.916L67.8073 92.4183C67.8863 92.266 68.052 92.1792 68.2196 92.1888C70.2656 92.3508 72.3697 92.3354 74.4739 92.1445C74.6413 92.131 74.8082 92.2178 74.8892 92.3682L79.3889 100.829L87.4885 98.6091L87.0536 89.0356C87.0459 88.864 87.1416 88.7039 87.2964 88.6306C89.2038 87.7223 91.0224 86.6615 92.7018 85.4813C92.8421 85.3829 93.0276 85.3771 93.1734 85.4678L101.286 90.5361L107.192 84.5613L102.031 76.4864C101.939 76.3418 101.942 76.1566 102.038 76.0139C103.214 74.2994 104.255 72.473 105.133 70.583C105.205 70.4288 105.361 70.3304 105.535 70.3362L115.108 70.666L117.237 62.5371L108.746 58.1322C108.593 58.0531 108.503 57.8911 108.517 57.7195C108.677 55.6732 108.662 53.5653 108.471 51.4612C108.456 51.2896 108.544 51.1257 108.696 51.0447L117.15 46.5434L114.932 38.4376L105.365 38.8716C105.201 38.8793 105.034 38.7848 104.961 38.6286C104.052 36.7193 102.993 34.8987 101.813 33.2208C101.714 33.0801 101.709 32.8949 101.8 32.7483L106.865 24.6291L100.894 18.7199L92.8247 23.8846C92.68 23.9772 92.4945 23.9733 92.3532 23.8769C90.6369 22.6986 88.8108 21.6571 86.9252 20.7796C86.7701 20.7083 86.6729 20.5501 86.6787 20.3785L87.0091 10.7973L78.8857 8.66625L74.4846 17.1655C74.4055 17.3178 74.2441 17.4065 74.072 17.393C72.0243 17.233 69.92 17.2484 67.8175 17.4393C67.648 17.4528 67.4829 17.3661 67.4023 17.2137L62.9029 8.75499L54.8031 10.9748L55.2376 20.5482C55.2453 20.7198 55.1497 20.878 54.9948 20.9532C53.0888 21.8616 51.2701 22.9203 49.59 24.1025C49.4498 24.2009 49.2639 24.2067 49.1182 24.1141L41.0053 19.0458L35.0995 25.0225L40.2605 33.0974C40.3527 33.242 40.3496 33.4272 40.2528 33.568C39.0762 35.2863 38.0349 37.1127 37.1584 39.0008C37.0863 39.155 36.9326 39.2573 36.7567 39.2476L27.1836 38.9159L25.0547 47.0468L33.546 51.4516C33.6982 51.5307 33.7884 51.6927 33.7751 51.8624C33.6148 53.9086 33.6299 56.0146 33.82 58.1225C33.8355 58.2942 33.747 58.4562 33.5956 58.5372L25.1417 63.0404L27.3597 71.1462L36.9262 70.7104C37.0996 70.7065 37.2573 70.7991 37.331 70.9533C38.2396 72.8646 39.2985 74.6832 40.4786 76.363C40.5774 76.5038 40.5822 76.6889 40.4917 76.8336L35.4267 84.9548L41.3972 90.8639L49.4667 85.6992C49.6114 85.6066 49.7969 85.6105 49.9385 85.7069C51.6532 86.8833 53.4793 87.9267 55.366 88.8042C55.5213 88.8756 55.6183 89.0337 55.6125 89.2054L55.2823 98.7846ZM63.6277 101.843C63.592 101.843 63.5553 101.837 63.5195 101.828L54.7358 99.5251C54.5427 99.4731 54.4106 99.2956 54.4176 99.097L54.7497 89.458C52.9964 88.6248 51.2968 87.6567 49.6895 86.5709L41.5698 91.7665C41.4018 91.8745 41.1814 91.8513 41.0395 91.7105L34.5836 85.3212C34.442 85.1804 34.4164 84.9606 34.5219 84.7908L39.6181 76.6214C38.5281 75.0439 37.542 73.3486 36.683 71.5763L27.0577 72.0141C26.86 72.0218 26.6793 71.8925 26.6267 71.7016L24.2285 62.9363C24.1758 62.7434 24.2636 62.5409 24.4395 62.4464L32.9454 57.9162C32.7825 55.9529 32.768 53.9915 32.9028 52.0784L24.3587 47.6466C24.1816 47.5559 24.0918 47.3534 24.1425 47.1605L26.4444 38.3701C26.495 38.1773 26.676 38.0461 26.8722 38.0519L36.5046 38.3836C37.3349 36.6305 38.3042 34.9295 39.3896 33.3211L34.1965 25.1941C34.0893 25.0263 34.1124 24.8065 34.2526 24.6637L40.6381 18.203C40.7785 18.0622 40.9986 18.0353 41.1679 18.1413L49.3315 23.2424C50.9099 22.1508 52.603 21.1634 54.3721 20.3052L53.9349 10.672C53.9258 10.4733 54.0562 10.294 54.2484 10.2419L63.0067 7.84084C63.2001 7.78877 63.4026 7.87555 63.4963 8.05298L68.0233 16.5637C69.9831 16.4017 71.9425 16.3863 73.856 16.5213L78.2846 7.97196C78.3766 7.79453 78.5781 7.70391 78.7722 7.75405L87.5556 10.0587C87.7487 10.1088 87.8808 10.2863 87.874 10.4868L87.5416 20.1258C89.2937 20.9571 90.9937 21.9271 92.6019 23.0129L100.722 17.8173C100.89 17.7093 101.11 17.7325 101.252 17.8733L107.708 24.2626C107.85 24.4034 107.875 24.6233 107.77 24.7911L102.674 32.9624C103.763 34.54 104.749 36.2333 105.608 38.0075L115.234 37.5678C115.434 37.564 115.612 37.6893 115.665 37.8822L118.063 46.6475C118.116 46.8404 118.028 47.0429 117.852 47.1355L109.346 51.6657C109.509 53.629 109.523 55.5903 109.389 57.5035L117.933 61.9354C118.11 62.0279 118.2 62.2304 118.149 62.4233L115.847 71.2137C115.797 71.4066 115.617 71.5416 115.419 71.5319L105.787 71.1983C104.955 72.9552 103.986 74.6562 102.902 76.2627L108.095 84.3897C108.203 84.5575 108.179 84.7773 108.039 84.92L101.653 91.3788C101.513 91.5216 101.293 91.5466 101.124 91.4405L92.9601 86.3414C91.3827 87.433 89.6894 88.4204 87.9192 89.2786L88.3568 98.9118C88.3658 99.1105 88.2355 99.2898 88.0432 99.3419L79.285 101.741C79.0919 101.795 78.889 101.706 78.7955 101.531L74.2682 93.02C72.3072 93.182 70.3478 93.1955 68.4358 93.0605L64.0068 101.612C63.932 101.756 63.7843 101.843 63.6277 101.843Z" fill="black"/>
<path d="M11.0914 218.352C10.9271 218.352 10.7705 218.258 10.7003 218.097C3.05969 200.675 -0.404792 182.434 0.403279 163.878C1.19554 145.674 6.0484 128.066 14.8261 111.544C14.9368 111.336 15.195 111.257 15.4033 111.366C15.6116 111.476 15.6907 111.737 15.5802 111.943C-2.00165 145.037 -3.49533 183.605 11.4822 217.754C11.5768 217.97 11.4785 218.223 11.2627 218.317C11.2069 218.34 11.1487 218.352 11.0914 218.352Z" fill="black"/>
<path d="M15.5694 209.02C15.3939 209.02 15.2296 208.912 15.1673 208.737C10.3667 195.264 8.17954 181.299 8.6667 167.232C9.14556 153.396 12.1942 139.804 17.7277 126.832C17.8201 126.614 18.0704 126.514 18.2878 126.606C18.5045 126.699 18.6054 126.95 18.5128 127.166C7.44398 153.117 6.54141 181.983 15.9714 208.451C16.0506 208.673 15.9347 208.916 15.7125 208.995C15.6653 209.012 15.6169 209.02 15.5694 209.02Z" fill="black"/>
<path d="M19.7018 119.638L23.1315 122.076L23.0679 118.439C22.3614 118.67 21.0566 119.11 19.7018 119.638ZM23.5728 123.341C23.486 123.341 23.3992 123.314 23.3257 123.262L18.5693 119.881C18.4424 119.791 18.3747 119.64 18.3924 119.484C18.4102 119.33 18.5107 119.199 18.6543 119.139C20.9304 118.204 23.3342 117.455 23.3581 117.448C23.4862 117.409 23.626 117.43 23.7348 117.509C23.8437 117.588 23.9089 117.714 23.9116 117.849L23.9998 122.905C24.0025 123.067 23.9143 123.216 23.7718 123.291C23.7093 123.324 23.641 123.341 23.5728 123.341Z" fill="black"/>
<path d="M319.443 84.5942C319.259 84.5942 319.09 84.4747 319.034 84.2915C318.966 84.0658 319.093 83.8267 319.319 83.7592L322.488 82.7968C322.713 82.7274 322.951 82.8547 323.02 83.0803C323.088 83.306 322.96 83.5451 322.735 83.6126L319.568 84.575C319.525 84.5885 319.483 84.5942 319.443 84.5942Z" fill="black"/>
<path d="M312.064 86.8369C311.88 86.8369 311.711 86.7174 311.655 86.5341C311.585 86.3085 311.713 86.0693 311.938 86.0018L315.107 85.0375C315.332 84.97 315.57 85.0973 315.639 85.323C315.709 85.5486 315.581 85.7878 315.356 85.8553L312.187 86.8176C312.146 86.8311 312.104 86.8369 312.064 86.8369Z" fill="black"/>
<path d="M316.696 83.1284C316.513 83.1284 316.345 83.0089 316.289 82.8256L315.325 79.657C315.257 79.4313 315.385 79.1941 315.61 79.1247C315.836 79.0553 316.073 79.1845 316.142 79.4082L317.105 82.5769C317.174 82.8025 317.047 83.0416 316.821 83.1091C316.779 83.1226 316.738 83.1284 316.696 83.1284Z" fill="black"/>
<path d="M318.939 90.5093C318.756 90.5093 318.588 90.3897 318.532 90.2065L317.568 87.0378C317.5 86.8122 317.628 86.5731 317.853 86.5056C318.079 86.4361 318.316 86.5634 318.386 86.7891L319.348 89.9577C319.417 90.1834 319.29 90.4206 319.064 90.49C319.022 90.5016 318.982 90.5093 318.939 90.5093Z" fill="black"/>
<path d="M328.595 97.6913C327.442 98.455 327.12 100.038 327.878 101.222C328.248 101.801 328.815 102.194 329.475 102.335C330.119 102.472 330.778 102.345 331.328 101.982C332.481 101.219 332.803 99.6353 332.045 98.4511C331.675 97.8725 331.11 97.4772 330.449 97.3383C329.805 97.2014 329.147 97.3268 328.595 97.6913ZM329.986 103.242C329.758 103.242 329.527 103.219 329.297 103.17C328.412 102.983 327.652 102.455 327.158 101.683C326.15 100.11 326.584 97.9979 328.125 96.9796C328.867 96.4879 329.756 96.32 330.626 96.5033C331.511 96.6903 332.271 97.2188 332.765 97.9902C333.773 99.5639 333.34 101.674 331.799 102.694C331.253 103.055 330.626 103.242 329.986 103.242Z" fill="black"/>
<path d="M310.959 127.85C309.236 128.972 308.755 131.297 309.887 133.035C310.441 133.885 311.287 134.462 312.273 134.669C313.235 134.87 314.22 134.683 315.041 134.151C316.764 133.03 317.245 130.705 316.113 128.966C315.559 128.117 314.715 127.536 313.727 127.332C312.765 127.131 311.783 127.315 310.959 127.85ZM313.036 136C312.696 136 312.35 135.966 312.008 135.895C310.685 135.621 309.55 134.845 308.813 133.712C307.306 131.401 307.954 128.301 310.256 126.805C311.365 126.083 312.693 125.837 313.992 126.106C315.315 126.381 316.45 127.157 317.187 128.289C318.694 130.6 318.046 133.698 315.744 135.196C314.929 135.725 313.992 136 313.036 136Z" fill="black"/>
<path d="M294.163 49.6021H101.557C95.4813 49.6021 90.182 54.6877 89.7211 60.9594L69.9384 330.146C69.4775 336.417 74.0295 341.503 80.105 341.503H272.711C278.788 341.503 284.086 336.417 284.547 330.146L304.33 60.9594C304.791 54.6877 300.24 49.6021 294.163 49.6021Z" fill="black"/>
<path d="M287.978 49.6021H95.3709C89.2951 49.6021 83.9958 54.6877 83.5349 60.9594L63.7523 330.146C63.2914 336.417 67.8432 341.503 73.9188 341.503H266.526C272.601 341.503 277.901 336.417 278.362 330.146L298.143 60.9594C298.606 54.6877 294.053 49.6021 287.978 49.6021Z" fill="white"/>
<path d="M271.809 117.276C271.801 117.276 271.793 117.276 271.785 117.276C271.55 117.262 271.369 117.062 271.382 116.827L273.994 68.0529H106.65L104.067 100.663C104.048 100.898 103.845 101.072 103.607 101.057C103.373 101.037 103.197 100.831 103.216 100.596L105.83 67.592C105.848 67.3702 106.033 67.1986 106.256 67.1986H274.443C274.561 67.1986 274.672 67.2468 274.753 67.3317C274.834 67.4184 274.875 67.5322 274.869 67.6499L272.235 116.873C272.223 117.1 272.034 117.276 271.809 117.276Z" fill="black"/>
<path d="M123.716 112.259H250.423L250.918 105.523H124.211L123.716 112.259ZM250.82 113.112H123.257C123.138 113.112 123.025 113.064 122.944 112.977C122.863 112.89 122.823 112.772 122.831 112.655L123.389 105.066C123.405 104.842 123.591 104.67 123.814 104.67H251.377C251.497 104.67 251.609 104.719 251.69 104.805C251.771 104.892 251.811 105.01 251.804 105.128L251.246 112.716C251.229 112.94 251.044 113.112 250.82 113.112Z" fill="black"/>
<path d="M122.618 127.198H216.007L216.503 120.464H123.113L122.618 127.198ZM216.405 128.053H122.159C122.04 128.053 121.927 128.003 121.846 127.916C121.765 127.829 121.724 127.713 121.733 127.594L122.291 120.005C122.307 119.783 122.493 119.609 122.716 119.609H216.962C217.08 119.609 217.193 119.66 217.274 119.746C217.355 119.833 217.396 119.949 217.386 120.068L216.829 127.657C216.813 127.879 216.628 128.053 216.405 128.053Z" fill="black"/>
<path d="M120.745 152.68H247.453L247.948 145.946H121.24L120.745 152.68ZM247.85 153.535H120.286C120.168 153.535 120.054 153.485 119.973 153.398C119.893 153.311 119.852 153.195 119.861 153.076L120.418 145.487C120.435 145.265 120.62 145.091 120.844 145.091H248.407C248.525 145.091 248.639 145.142 248.72 145.228C248.801 145.315 248.841 145.431 248.832 145.55L248.274 153.139C248.259 153.361 248.074 153.535 247.85 153.535Z" fill="black"/>
<path d="M119.647 167.621H213.037L213.531 160.885H120.142L119.647 167.621ZM213.432 168.474H119.188C119.069 168.474 118.956 168.425 118.875 168.339C118.794 168.252 118.754 168.134 118.762 168.017L119.32 160.428C119.336 160.204 119.522 160.032 119.746 160.032H213.99C214.109 160.032 214.223 160.08 214.302 160.167C214.383 160.256 214.426 160.372 214.416 160.489L213.859 168.078C213.843 168.302 213.656 168.474 213.432 168.474Z" fill="black"/>
<path d="M117.775 193.103H244.483L244.976 186.367H118.27L117.775 193.103ZM244.878 193.956H117.315C117.197 193.956 117.083 193.907 117.003 193.821C116.922 193.732 116.881 193.616 116.89 193.498L117.447 185.91C117.464 185.686 117.649 185.512 117.873 185.512H245.435C245.555 185.512 245.669 185.562 245.748 185.649C245.829 185.736 245.871 185.854 245.862 185.971L245.304 193.56C245.289 193.784 245.102 193.956 244.878 193.956Z" fill="black"/>
<path d="M116.677 208.042H210.066L210.561 201.308H117.172L116.677 208.042ZM210.463 208.896H116.218C116.099 208.896 115.986 208.846 115.905 208.76C115.824 208.673 115.783 208.557 115.792 208.437L116.35 200.849C116.366 200.627 116.552 200.453 116.775 200.453H211.02C211.14 200.453 211.252 200.503 211.333 200.59C211.414 200.677 211.454 200.793 211.446 200.912L210.889 208.501C210.872 208.723 210.687 208.896 210.463 208.896Z" fill="black"/>
<path d="M114.804 233.524H241.511L242.006 226.789H115.299L114.804 233.524ZM241.908 234.378H114.345C114.226 234.378 114.113 234.328 114.032 234.241C113.951 234.155 113.91 234.039 113.919 233.919L114.477 226.33C114.493 226.107 114.679 225.935 114.902 225.935H242.465C242.585 225.935 242.697 225.985 242.778 226.072C242.859 226.159 242.899 226.275 242.892 226.392L242.334 233.983C242.317 234.205 242.132 234.378 241.908 234.378Z" fill="black"/>
<path d="M113.706 248.465H207.096L207.591 241.728H114.201L113.706 248.465ZM207.493 249.317H113.247C113.128 249.317 113.015 249.269 112.934 249.182C112.853 249.096 112.813 248.978 112.821 248.86L113.379 241.271C113.395 241.048 113.581 240.876 113.805 240.876H208.05C208.168 240.876 208.282 240.924 208.363 241.011C208.444 241.098 208.484 241.215 208.476 241.333L207.917 248.922C207.902 249.146 207.717 249.317 207.493 249.317Z" fill="black"/>
<path d="M110.459 274.803H237.166L237.661 268.067H110.954L110.459 274.803ZM237.563 275.656H110C109.881 275.656 109.768 275.608 109.687 275.521C109.606 275.434 109.566 275.316 109.574 275.199L110.132 267.61C110.148 267.386 110.334 267.214 110.558 267.214H238.12C238.24 267.214 238.352 267.263 238.433 267.349C238.514 267.436 238.554 267.554 238.547 267.671L237.989 275.26C237.972 275.484 237.787 275.656 237.563 275.656Z" fill="black"/>
<path d="M109.361 289.744H202.75L203.246 283.008H109.856L109.361 289.744ZM203.148 290.597H108.902C108.783 290.597 108.67 290.548 108.589 290.46C108.508 290.373 108.468 290.257 108.476 290.14L109.034 282.551C109.05 282.327 109.236 282.153 109.46 282.153H203.705C203.823 282.153 203.936 282.204 204.017 282.29C204.098 282.377 204.139 282.495 204.129 282.612L203.572 290.201C203.557 290.425 203.371 290.597 203.148 290.597Z" fill="black"/>
<path d="M246.664 81.8555H137.378C132.921 81.8555 129.582 78.1256 129.922 73.526L130.809 61.4589C131.578 50.981 140.429 42.4876 150.577 42.4876H239.25C249.399 42.4876 257.001 50.981 256.232 61.4589L255.344 73.526C255.007 78.1256 251.121 81.8555 246.664 81.8555Z" fill="black"/>
<path d="M150.577 42.9138C140.664 42.9138 131.987 51.2471 131.233 61.4898L130.348 73.5569C130.188 75.7169 130.867 77.7303 132.257 79.2269C133.576 80.6463 135.395 81.4293 137.378 81.4293H246.664C250.895 81.4293 254.598 77.8691 254.918 73.4951L255.805 61.4262C256.178 56.354 254.583 51.6232 251.312 48.1036C248.203 44.7575 243.92 42.9138 239.251 42.9138H150.577ZM246.664 82.2817H137.378C135.154 82.2817 133.114 81.4042 131.632 79.8074C130.078 78.1353 129.32 75.8943 129.496 73.4951L130.383 61.4262C131.168 50.7477 140.226 42.0614 150.577 42.0614H239.251C244.159 42.0614 248.664 43.9996 251.937 47.5212C255.372 51.2182 257.047 56.1785 256.656 61.4898L255.771 73.5569C255.416 78.3687 251.331 82.2817 246.664 82.2817Z" fill="black"/>
<path d="M243.948 81.8555H134.66C130.205 81.8555 126.867 78.1256 127.204 73.526L128.091 61.4589C128.861 50.981 137.713 42.4876 147.861 42.4876H236.533C246.681 42.4876 254.284 50.981 253.514 61.4589L252.627 73.526C252.289 78.1256 248.403 81.8555 243.948 81.8555Z" fill="white"/>
<path d="M147.861 42.9138C137.946 42.9138 129.27 51.2471 128.518 61.4898L127.631 73.5569C127.472 75.7169 128.149 77.7303 129.54 79.2269C130.859 80.6463 132.678 81.4293 134.66 81.4293H243.948C248.178 81.4293 251.881 77.8691 252.203 73.4951L253.09 61.4262C253.462 56.354 251.865 51.6232 248.594 48.1036C245.486 44.7575 241.202 42.9138 236.533 42.9138H147.861ZM243.948 82.2817H134.66C132.438 82.2817 130.398 81.4042 128.915 79.8074C127.361 78.1353 126.602 75.8943 126.779 73.4951L127.665 61.4262C128.45 50.7477 137.511 42.0614 147.861 42.0614H236.533C241.441 42.0614 245.948 43.9996 249.219 47.5212C252.654 51.2182 254.33 56.1785 253.94 61.4898L253.053 73.5569C252.7 78.3687 248.616 82.2817 243.948 82.2817Z" fill="black"/>
<path d="M195.314 23.9891C191.761 23.9891 189.102 21.0171 189.37 17.349C189.64 13.6828 192.737 10.7089 196.289 10.7089C199.842 10.7089 202.503 13.6828 202.233 17.349C201.965 21.0171 198.866 23.9891 195.314 23.9891ZM197.022 0.747846C185.603 0.747846 175.646 10.3039 174.78 22.0933L172.333 55.3746C172.057 59.1296 174.782 62.1729 178.417 62.1729H206.6C210.235 62.1729 213.405 59.1296 213.681 55.3746L216.129 22.0933C216.995 10.3039 208.439 0.747846 197.022 0.747846Z" fill="black"/>
<path d="M196.29 11.1347C192.963 11.1347 190.049 13.9369 189.796 17.3814C189.671 19.0785 190.203 20.6599 191.297 21.8344C192.33 22.9491 193.757 23.5624 195.314 23.5624C198.642 23.5624 201.557 20.7602 201.809 17.3177C201.933 15.6206 201.4 14.0372 200.309 12.8627C199.273 11.7499 197.846 11.1347 196.29 11.1347ZM195.314 24.4168C193.518 24.4168 191.869 23.7051 190.67 22.4149C189.414 21.0649 188.803 19.254 188.946 17.3177C189.229 13.4374 192.525 10.2823 196.29 10.2823C198.087 10.2823 199.736 10.992 200.934 12.2822C202.189 13.6322 202.802 15.4431 202.66 17.3814C202.374 21.2597 199.08 24.4168 195.314 24.4168ZM197.022 1.17559C185.841 1.17559 176.055 10.5716 175.205 22.1237L172.759 55.407C172.632 57.1466 173.178 58.7685 174.296 59.9739C175.359 61.1156 176.823 61.7443 178.418 61.7443H206.6C210.011 61.7443 212.997 58.8726 213.257 55.3434L215.703 22.0601C216.123 16.3399 214.322 11.0017 210.632 7.03073C207.124 3.25458 202.289 1.17559 197.022 1.17559ZM206.6 62.5986H178.418C176.582 62.5986 174.896 61.8716 173.671 60.5543C172.389 59.1735 171.762 57.324 171.909 55.3434L174.354 22.0601C175.235 10.074 185.405 0.321219 197.022 0.321219C202.53 0.321219 207.585 2.49663 211.257 6.44828C215.111 10.5966 216.991 16.1625 216.553 22.1237L214.108 55.407C213.816 59.3722 210.447 62.5986 206.6 62.5986Z" fill="black"/>
<path d="M193.557 23.9891C190.004 23.9891 187.343 21.0171 187.613 17.349C187.883 13.6828 190.98 10.7089 194.533 10.7089C198.085 10.7089 200.746 13.6828 200.476 17.349C200.206 21.0171 197.109 23.9891 193.557 23.9891ZM195.265 0.747846C183.846 0.747846 173.887 10.3039 173.021 22.0933L170.576 55.3746C170.3 59.1296 173.023 62.1729 176.659 62.1729H204.841C208.476 62.1729 211.649 59.1296 211.924 55.3746L214.37 22.0933C215.236 10.3039 206.683 0.747846 195.265 0.747846Z" fill="white"/>
<path d="M194.533 11.1347C191.204 11.1347 188.292 13.9369 188.037 17.3814C187.914 19.0785 188.446 20.6599 189.538 21.8344C190.573 22.9491 192.001 23.5624 193.557 23.5624C196.884 23.5624 199.798 20.7602 200.05 17.3177C200.176 15.6206 199.644 14.0372 198.552 12.8627C197.516 11.7499 196.089 11.1347 194.533 11.1347ZM193.557 24.4168C191.761 24.4168 190.111 23.7051 188.913 22.4149C187.657 21.0649 187.044 19.254 187.187 17.3177C187.472 13.4374 190.768 10.2823 194.533 10.2823C196.328 10.2823 197.977 10.992 199.177 12.2822C200.432 13.6322 201.044 15.4431 200.903 17.3814C200.617 21.2597 197.322 24.4168 193.557 24.4168ZM195.266 1.17559C184.084 1.17559 174.296 10.5716 173.448 22.1237L171.002 55.407C170.873 57.1466 171.419 58.7685 172.539 59.9739C173.6 61.1156 175.064 61.7443 176.659 61.7443H204.841C208.253 61.7443 211.24 58.8726 211.498 55.3434L213.944 22.0601C214.364 16.3399 212.565 11.0017 208.874 7.03073C205.366 3.25458 200.533 1.17559 195.266 1.17559ZM204.841 62.5986H176.659C174.825 62.5986 173.139 61.8716 171.915 60.5543C170.63 59.1735 170.005 57.324 170.15 55.3434L172.595 22.0601C173.477 10.074 183.646 0.321219 195.266 0.321219C200.772 0.321219 205.828 2.49663 209.5 6.44828C213.354 10.5966 215.234 16.1625 214.796 22.1237L212.349 55.407C212.058 59.3722 208.69 62.5986 204.841 62.5986Z" fill="black"/>
<path d="M197.541 341.929H73.9189C70.9319 341.929 68.1898 340.749 66.198 338.604C64.109 336.358 63.0893 333.341 63.3268 330.113L64.6413 312.227C64.6584 311.992 64.8586 311.815 65.098 311.834C65.3331 311.851 65.5095 312.056 65.4925 312.291L64.178 330.176C63.9584 333.164 64.8978 335.953 66.8233 338.024C68.6519 339.991 71.1718 341.077 73.9189 341.077H197.541C197.778 341.077 197.969 341.268 197.969 341.503C197.969 341.738 197.778 341.929 197.541 341.929Z" fill="black"/>
<mask id="path-33-inside-1_1123_3160" fill="white">
<path fill-rule="evenodd" clip-rule="evenodd" d="M144.789 260.069H144.856C150.023 260.069 154.293 258.293 157.546 254.793C164.869 246.915 163.895 232.959 163.851 232.369C163.84 232.219 163.82 232.072 163.792 231.927H172.281C174.439 231.927 176.186 230.178 176.186 228.022C176.186 225.864 174.439 224.115 172.281 224.115H149.149C146.991 224.115 145.242 225.864 145.242 228.022C145.242 230.178 146.991 231.927 149.149 231.927H156.119C156.056 232.26 156.034 232.607 156.061 232.961C156.297 236.035 155.992 244.992 151.824 249.474C150.085 251.346 147.805 252.257 144.855 252.257H144.812C135.513 252.23 125.53 237.976 122.467 232.481C121.419 230.597 119.041 229.918 117.156 230.965C115.27 232.012 114.591 234.39 115.638 236.277C115.77 236.512 118.913 242.134 123.853 247.819C130.899 255.927 137.944 260.048 144.789 260.069Z"/>
</mask>
<path fill-rule="evenodd" clip-rule="evenodd" d="M144.789 260.069H144.856C150.023 260.069 154.293 258.293 157.546 254.793C164.869 246.915 163.895 232.959 163.851 232.369C163.84 232.219 163.82 232.072 163.792 231.927H172.281C174.439 231.927 176.186 230.178 176.186 228.022C176.186 225.864 174.439 224.115 172.281 224.115H149.149C146.991 224.115 145.242 225.864 145.242 228.022C145.242 230.178 146.991 231.927 149.149 231.927H156.119C156.056 232.26 156.034 232.607 156.061 232.961C156.297 236.035 155.992 244.992 151.824 249.474C150.085 251.346 147.805 252.257 144.855 252.257H144.812C135.513 252.23 125.53 237.976 122.467 232.481C121.419 230.597 119.041 229.918 117.156 230.965C115.27 232.012 114.591 234.39 115.638 236.277C115.77 236.512 118.913 242.134 123.853 247.819C130.899 255.927 137.944 260.048 144.789 260.069Z" fill="#FADCFF"/>
<path d="M144.789 260.069V261.069L144.786 261.069L144.789 260.069ZM157.546 254.793L156.814 254.112L156.814 254.112L157.546 254.793ZM163.851 232.369L164.848 232.293L164.848 232.294L163.851 232.369ZM163.792 231.927L162.81 232.115L162.583 230.927H163.792V231.927ZM156.119 231.927V230.927H157.329L157.102 232.115L156.119 231.927ZM156.061 232.961L155.064 233.038L155.064 233.037L156.061 232.961ZM151.824 249.474L151.092 248.793L151.092 248.793L151.824 249.474ZM144.812 252.257V253.257L144.809 253.257L144.812 252.257ZM122.467 232.481L121.593 232.968L121.593 232.967L122.467 232.481ZM117.156 230.965L117.641 231.839L117.641 231.839L117.156 230.965ZM115.638 236.277L114.765 236.764L114.764 236.762L115.638 236.277ZM123.853 247.819L123.098 248.475L123.098 248.475L123.853 247.819ZM144.856 261.069H144.789V259.069H144.856V261.069ZM158.279 255.474C154.82 259.195 150.276 261.069 144.856 261.069V259.069C149.77 259.069 153.766 257.391 156.814 254.112L158.279 255.474ZM164.848 232.294C164.873 232.627 165.132 236.344 164.451 240.993C163.773 245.619 162.143 251.316 158.279 255.474L156.814 254.112C160.272 250.391 161.817 245.171 162.472 240.703C163.123 236.257 162.873 232.702 162.854 232.444L164.848 232.294ZM164.774 231.739C164.809 231.921 164.834 232.106 164.848 232.293L162.854 232.445C162.845 232.333 162.83 232.223 162.81 232.115L164.774 231.739ZM172.281 232.927H163.792V230.927H172.281V232.927ZM177.186 228.022C177.186 230.73 174.991 232.927 172.281 232.927V230.927C173.886 230.927 175.186 229.626 175.186 228.022H177.186ZM172.281 223.115C174.992 223.115 177.186 225.312 177.186 228.022H175.186C175.186 226.415 173.886 225.115 172.281 225.115V223.115ZM149.149 223.115H172.281V225.115H149.149V223.115ZM144.242 228.022C144.242 225.312 146.439 223.115 149.149 223.115V225.115C147.544 225.115 146.242 226.416 146.242 228.022H144.242ZM149.149 232.927C146.439 232.927 144.242 230.731 144.242 228.022H146.242C146.242 229.625 147.543 230.927 149.149 230.927V232.927ZM156.119 232.927H149.149V230.927H156.119V232.927ZM155.064 233.037C155.031 232.594 155.057 232.158 155.137 231.739L157.102 232.115C157.054 232.362 157.038 232.62 157.059 232.885L155.064 233.037ZM151.092 248.793C152.98 246.763 154.053 243.633 154.61 240.514C155.161 237.42 155.176 234.497 155.064 233.038L157.059 232.885C157.182 234.5 157.162 237.592 156.578 240.865C155.999 244.114 154.837 247.703 152.557 250.155L151.092 248.793ZM144.855 251.257C147.574 251.257 149.571 250.43 151.092 248.793L152.557 250.154C150.598 252.263 148.036 253.257 144.855 253.257V251.257ZM144.812 251.257H144.855V253.257H144.812V251.257ZM123.34 231.994C124.839 234.683 128.053 239.549 132.026 243.73C134.011 245.82 136.161 247.713 138.356 249.079C140.557 250.449 142.742 251.251 144.815 251.257L144.809 253.257C142.233 253.249 139.682 252.259 137.3 250.777C134.912 249.291 132.632 247.272 130.576 245.108C126.466 240.782 123.157 235.773 121.593 232.968L123.34 231.994ZM116.67 230.091C119.037 228.776 122.025 229.628 123.341 231.995L121.593 232.967C120.813 231.566 119.044 231.06 117.641 231.839L116.67 230.091ZM114.764 236.762C113.448 234.393 114.301 231.407 116.67 230.091L117.641 231.839C116.239 232.618 115.733 234.387 116.512 235.791L114.764 236.762ZM123.098 248.475C118.092 242.713 114.909 237.023 114.765 236.764L116.511 235.789C116.63 236.001 119.734 241.554 124.608 247.163L123.098 248.475ZM144.786 261.069C137.523 261.047 130.227 256.678 123.098 248.475L124.608 247.163C131.572 255.176 138.366 259.049 144.792 259.069L144.786 261.069Z" fill="black" mask="url(#path-33-inside-1_1123_3160)"/>
<path d="M144.789 178.188H140.49V155.091H144.789C148.961 155.091 152.341 158.474 152.341 162.644V170.638C152.341 174.807 148.961 178.188 144.789 178.188Z" fill="white"/>
<path d="M140.916 177.761H144.789C148.717 177.761 151.913 174.566 151.913 170.637V162.643C151.913 158.715 148.717 155.519 144.789 155.519H140.916V177.761ZM144.789 178.616H140.49C140.255 178.616 140.064 178.425 140.064 178.188V155.091C140.064 154.856 140.255 154.665 140.49 154.665H144.789C149.188 154.665 152.767 158.244 152.767 162.643V170.637C152.767 175.036 149.188 178.616 144.789 178.616Z" fill="black"/>
<path d="M31.9077 155.519C27.979 155.519 24.783 158.715 24.783 162.643V170.637C24.783 174.566 27.979 177.761 31.9077 177.761H35.7797V155.519H31.9077ZM36.2067 178.616H31.9077C27.5084 178.616 23.9292 175.036 23.9292 170.637V162.643C23.9292 158.244 27.5084 154.665 31.9077 154.665H36.2067C36.4423 154.665 36.6333 154.856 36.6333 155.091V178.188C36.6333 178.425 36.4423 178.616 36.2067 178.616Z" fill="black"/>
<path d="M32.4736 165.687C32.4736 140.868 57.4897 115.195 88.3486 115.195C119.208 115.195 144.224 140.868 144.224 165.687C144.224 190.504 119.208 205.07 88.3486 205.07C57.4897 205.07 32.4736 190.504 32.4736 165.687Z" fill="white"/>
<path d="M88.3486 115.623C56.6134 115.623 32.9005 142.054 32.9005 165.687C32.9005 177.368 38.4937 187.273 49.076 194.33C59.0478 200.981 72.9951 204.644 88.3486 204.644C103.702 204.644 117.65 200.981 127.621 194.33C138.203 187.273 143.798 177.368 143.798 165.687C143.798 142.054 120.084 115.623 88.3486 115.623ZM88.3486 205.498C72.8284 205.498 58.713 201.784 48.6021 195.039C37.7716 187.817 32.0469 177.667 32.0469 165.687C32.0469 153.403 38.0607 140.696 48.5466 130.824C59.5423 120.469 73.6776 114.768 88.3486 114.768C103.02 114.768 117.155 120.469 128.151 130.824C138.637 140.696 144.65 153.403 144.65 165.687C144.65 177.667 138.926 187.817 128.096 195.039C117.985 201.784 103.869 205.498 88.3486 205.498Z" fill="black"/>
<path d="M102.344 212.526H74.3527C62.0843 212.526 52.1387 222.472 52.1387 234.741C52.1387 242.847 52.9294 250.932 54.4994 258.885L58.5238 279.266C61.3364 293.511 73.8291 303.778 88.3484 303.778C102.868 303.778 115.361 293.511 118.173 279.266L122.197 258.885C123.768 250.932 124.558 242.847 124.558 234.741C124.558 222.472 114.613 212.526 102.344 212.526Z" fill="white"/>
<path d="M74.3528 212.954C62.3393 212.954 52.5655 222.728 52.5655 234.741C52.5655 242.801 53.357 250.895 54.9184 258.802L58.9427 279.183C61.7077 293.187 74.0747 303.35 88.3484 303.35C102.622 303.35 114.989 293.187 117.754 279.183L121.779 258.802C123.34 250.897 124.131 242.801 124.131 234.741C124.131 222.728 114.358 212.954 102.344 212.954H74.3528ZM88.3484 304.205C73.6679 304.205 60.949 293.752 58.1051 279.349L54.081 258.968C52.5088 251.007 51.7119 242.855 51.7119 234.741C51.7119 222.258 61.8685 212.1 74.3528 212.1H102.344C114.828 212.1 124.985 222.256 124.985 234.741C124.985 242.857 124.188 251.007 122.616 258.968L118.592 279.349C115.748 293.752 103.029 304.205 88.3484 304.205Z" fill="black"/>
<path d="M93.6214 261.747H83.0754C77.5726 261.747 73.1118 257.286 73.1118 251.782V212.526H103.585V251.782C103.585 257.286 99.124 261.747 93.6214 261.747Z" fill="white"/>
<path d="M73.5391 212.954V251.782C73.5391 257.041 77.8171 261.319 83.0755 261.319H93.6219C98.8804 261.319 103.158 257.041 103.158 251.782V212.954H73.5391ZM93.6219 262.173H83.0755C77.3463 262.173 72.6855 257.512 72.6855 251.782V212.526C72.6855 212.291 72.8767 212.1 73.1123 212.1H103.585C103.821 212.1 104.012 212.291 104.012 212.526V251.782C104.012 257.512 99.3509 262.173 93.6219 262.173Z" fill="black"/>
<path d="M103.585 212.954H73.1123C72.8767 212.954 72.6855 212.763 72.6855 212.526C72.6855 212.291 72.8767 212.1 73.1123 212.1H103.585C103.821 212.1 104.012 212.291 104.012 212.526C104.012 212.763 103.821 212.954 103.585 212.954Z" fill="black"/>
<path d="M68.7597 186.024L68.7597 186.024C76.1701 187.417 87.5781 188.117 99.0109 188.117C110.444 188.117 121.852 187.417 129.262 186.024C131.2 185.66 132.763 184.358 133.852 182.554C134.943 180.748 135.535 178.474 135.535 176.259V169.145C135.535 163.36 131.193 158.739 125.914 158.739H72.1078C66.8286 158.739 62.4868 163.36 62.4868 169.145V176.259C62.4868 178.474 63.0792 180.748 64.1694 182.554C65.2587 184.358 66.8214 185.66 68.7597 186.024Z" fill="#FADCFF" stroke="black"/>
<path d="M82.9768 175.711C84.5389 175.711 85.8676 174.335 85.8676 172.556C85.8676 170.779 84.5391 169.404 82.9768 169.404C81.4146 169.404 80.0859 170.779 80.0859 172.556C80.0859 174.335 81.4148 175.711 82.9768 175.711Z" fill="white" stroke="black"/>
<path d="M119.052 175.711C120.614 175.711 121.943 174.335 121.943 172.556C121.943 170.779 120.615 169.404 119.052 169.404C117.49 169.404 116.162 170.779 116.162 172.556C116.162 174.335 117.49 175.711 119.052 175.711Z" fill="white" stroke="black"/>
<mask id="path-48-inside-2_1123_3160" fill="white">
<path fill-rule="evenodd" clip-rule="evenodd" d="M72.0788 281.978H79.5797C81.7368 281.978 83.4855 280.228 83.4855 278.072C83.4855 275.914 81.7368 274.165 79.5797 274.165H72.0788C72.0107 274.165 71.9544 274.115 71.9478 274.047L71.6867 271.436C71.6846 271.415 71.6809 271.378 71.72 271.336C71.7592 271.291 71.7958 271.291 71.8176 271.291H83.7823C85.9394 271.291 87.688 269.542 87.688 267.386C87.688 265.228 85.9394 263.481 83.7823 263.481H71.8176C69.5778 263.481 67.4311 264.433 65.928 266.094C64.9267 267.2 64.2666 268.56 64.0034 270.003C63.262 269.555 62.3676 269.349 61.4433 269.479C55.9279 270.254 40.0163 271.041 32.7191 265.446C30.5885 263.813 29.3972 261.763 29.0776 259.178C27.1652 243.715 48.3618 233.613 48.576 233.513C50.5291 232.603 51.3767 230.283 50.4691 228.327C49.5608 226.371 47.2384 225.521 45.2818 226.429C44.1959 226.935 18.7133 239.021 21.3249 260.137C21.9066 264.841 24.1412 268.713 27.9664 271.645C34.6032 276.734 44.9567 277.824 52.6093 277.824C58.0581 277.824 62.1383 277.27 62.5298 277.216C63.2745 277.111 63.9404 276.803 64.4793 276.356C65.4755 279.648 68.512 281.978 72.0788 281.978Z"/>
</mask>
<path fill-rule="evenodd" clip-rule="evenodd" d="M72.0788 281.978H79.5797C81.7368 281.978 83.4855 280.228 83.4855 278.072C83.4855 275.914 81.7368 274.165 79.5797 274.165H72.0788C72.0107 274.165 71.9544 274.115 71.9478 274.047L71.6867 271.436C71.6846 271.415 71.6809 271.378 71.72 271.336C71.7592 271.291 71.7958 271.291 71.8176 271.291H83.7823C85.9394 271.291 87.688 269.542 87.688 267.386C87.688 265.228 85.9394 263.481 83.7823 263.481H71.8176C69.5778 263.481 67.4311 264.433 65.928 266.094C64.9267 267.2 64.2666 268.56 64.0034 270.003C63.262 269.555 62.3676 269.349 61.4433 269.479C55.9279 270.254 40.0163 271.041 32.7191 265.446C30.5885 263.813 29.3972 261.763 29.0776 259.178C27.1652 243.715 48.3618 233.613 48.576 233.513C50.5291 232.603 51.3767 230.283 50.4691 228.327C49.5608 226.371 47.2384 225.521 45.2818 226.429C44.1959 226.935 18.7133 239.021 21.3249 260.137C21.9066 264.841 24.1412 268.713 27.9664 271.645C34.6032 276.734 44.9567 277.824 52.6093 277.824C58.0581 277.824 62.1383 277.27 62.5298 277.216C63.2745 277.111 63.9404 276.803 64.4793 276.356C65.4755 279.648 68.512 281.978 72.0788 281.978Z" fill="#FADCFF"/>
<path d="M71.9478 274.047L72.9428 273.948L72.9431 273.951L71.9478 274.047ZM71.6867 271.436L70.6916 271.535L70.6916 271.535L71.6867 271.436ZM71.72 271.336L72.4698 271.997L72.4625 272.006L72.455 272.014L71.72 271.336ZM65.928 266.094L65.1866 265.423L65.1866 265.423L65.928 266.094ZM64.0034 270.003L64.9872 270.182L64.7271 271.608L63.4864 270.859L64.0034 270.003ZM61.4433 269.479L61.3041 268.489L61.3047 268.488L61.4433 269.479ZM32.7191 265.446L33.3276 264.653L33.3276 264.653L32.7191 265.446ZM29.0776 259.178L30.0701 259.056L30.0701 259.056L29.0776 259.178ZM48.576 233.513L48.1521 232.607L48.1536 232.606L48.576 233.513ZM50.4691 228.327L51.3761 227.906L51.3762 227.906L50.4691 228.327ZM45.2818 226.429L44.86 225.523L44.8608 225.522L45.2818 226.429ZM21.3249 260.137L22.3174 260.014L22.3174 260.014L21.3249 260.137ZM27.9664 271.645L28.5746 270.851L28.5749 270.851L27.9664 271.645ZM62.5298 277.216L62.6693 278.206L62.6665 278.207L62.5298 277.216ZM64.4793 276.356L63.8404 275.586L64.9999 274.623L65.4364 276.066L64.4793 276.356ZM79.5797 282.978H72.0788V280.978H79.5797V282.978ZM84.4855 278.072C84.4855 280.781 82.2892 282.978 79.5797 282.978V280.978C81.1845 280.978 82.4855 279.676 82.4855 278.072H84.4855ZM79.5797 273.165C82.2895 273.165 84.4855 275.362 84.4855 278.072H82.4855C82.4855 276.466 81.1842 275.165 79.5797 275.165V273.165ZM72.0788 273.165H79.5797V275.165H72.0788V273.165ZM72.9431 273.951C72.8988 273.494 72.5139 273.165 72.0788 273.165V275.165C71.5075 275.165 71.0099 274.735 70.9525 274.144L72.9431 273.951ZM72.6817 271.336L72.9428 273.948L70.9528 274.147L70.6916 271.535L72.6817 271.336ZM72.455 272.014C72.551 271.91 72.6295 271.77 72.6652 271.606C72.6977 271.456 72.6812 271.332 72.6817 271.336L70.6916 271.535C70.69 271.519 70.6706 271.366 70.7106 271.182C70.7537 270.983 70.8499 270.804 70.9851 270.658L72.455 272.014ZM71.8176 272.291C71.8128 272.291 71.9403 272.296 72.0892 272.246C72.2514 272.193 72.3798 272.099 72.4698 271.997L70.9703 270.674C71.0994 270.528 71.2658 270.412 71.4615 270.347C71.644 270.287 71.8006 270.291 71.8176 270.291V272.291ZM83.7823 272.291H71.8176V270.291H83.7823V272.291ZM88.688 267.386C88.688 270.094 86.4917 272.291 83.7823 272.291V270.291C85.3871 270.291 86.688 268.99 86.688 267.386H88.688ZM83.7823 262.481C86.4914 262.481 88.688 264.675 88.688 267.386H86.688C86.688 265.78 85.3874 264.481 83.7823 264.481V262.481ZM71.8176 262.481H83.7823V264.481H71.8176V262.481ZM65.1866 265.423C66.8792 263.553 69.2952 262.481 71.8176 262.481V264.481C69.8604 264.481 67.9829 265.314 66.6693 266.765L65.1866 265.423ZM63.0196 269.823C63.3157 268.2 64.0585 266.669 65.1866 265.423L66.6694 266.765C65.7949 267.731 65.2174 268.92 64.9872 270.182L63.0196 269.823ZM61.3047 268.488C62.4648 268.326 63.5897 268.585 64.5204 269.147L63.4864 270.859C62.9343 270.525 62.2705 270.373 61.5819 270.469L61.3047 268.488ZM33.3276 264.653C36.7291 267.261 42.2746 268.451 47.8219 268.854C53.3223 269.254 58.6076 268.868 61.3041 268.489L61.5825 270.469C58.7636 270.865 53.3354 271.26 47.6769 270.849C42.0652 270.441 36.0063 269.227 32.1107 266.24L33.3276 264.653ZM30.0701 259.056C30.3556 261.365 31.4022 263.176 33.3276 264.653L32.1107 266.24C29.7747 264.449 28.4388 262.161 28.0852 259.301L30.0701 259.056ZM48.9999 234.419C49.0006 234.418 48.9953 234.421 48.9829 234.427C48.9713 234.432 48.9546 234.44 48.9331 234.451C48.8901 234.472 48.8279 234.502 48.7479 234.542C48.5881 234.622 48.3573 234.74 48.0665 234.894C47.4847 235.202 46.6633 235.656 45.6878 236.246C43.7343 237.429 41.1761 239.15 38.6895 241.336C33.6714 245.746 29.1769 251.834 30.0701 259.056L28.0852 259.301C27.0659 251.059 32.2135 244.365 37.3692 239.833C42.5583 235.273 48.0075 232.675 48.1521 232.607L48.9999 234.419ZM51.3762 227.906C52.516 230.362 51.4515 233.276 48.9985 234.419L48.1536 232.606C49.6067 231.929 50.2374 230.203 49.5621 228.748L51.3762 227.906ZM44.8608 225.522C47.3184 224.381 50.2352 225.45 51.3761 227.906L49.5622 228.748C48.8863 227.293 47.1583 226.661 45.7029 227.336L44.8608 225.522ZM20.3325 260.26C18.9692 249.237 24.9551 240.639 31.2372 234.82C37.5289 228.993 44.2795 225.793 44.86 225.523L45.7037 227.336C45.1982 227.571 38.6645 230.667 32.5963 236.288C26.5185 241.917 21.0691 249.921 22.3174 260.014L20.3325 260.26ZM27.3581 272.438C23.3241 269.347 20.9477 265.234 20.3325 260.26L22.3174 260.014C22.8655 264.447 24.9584 268.08 28.5746 270.851L27.3581 272.438ZM52.6093 278.824C48.7411 278.824 44.1667 278.549 39.7035 277.622C35.2485 276.697 30.84 275.108 27.3578 272.438L28.5749 270.851C31.7296 273.27 35.8162 274.772 40.1103 275.664C44.3962 276.554 48.8249 276.824 52.6093 276.824V278.824ZM62.6665 278.207C62.2504 278.264 58.1208 278.824 52.6093 278.824V276.824C57.9953 276.824 62.0262 276.276 62.3932 276.226L62.6665 278.207ZM65.1182 277.125C64.4407 277.688 63.6029 278.075 62.6693 278.206L62.3904 276.226C62.946 276.148 63.4401 275.919 63.8404 275.586L65.1182 277.125ZM72.0788 282.978C68.0654 282.978 64.6443 280.353 63.5222 276.645L65.4364 276.066C66.3067 278.942 68.9585 280.978 72.0788 280.978V282.978Z" fill="black" mask="url(#path-48-inside-2_1123_3160)"/>
<path d="M343.484 352.824H163.986C160.783 352.824 158.185 350.226 158.185 347.023V318.133C158.185 314.929 160.783 312.331 163.986 312.331H343.484C346.687 312.331 349.285 314.929 349.285 318.133V347.023C349.285 350.226 346.687 352.824 343.484 352.824Z" fill="white"/>
<path d="M163.986 312.758C161.024 312.758 158.613 315.17 158.613 318.133V347.023C158.613 349.985 161.024 352.396 163.986 352.396H343.484C346.448 352.396 348.859 349.985 348.859 347.023V318.133C348.859 315.17 346.448 312.758 343.484 312.758H163.986ZM343.484 353.25H163.986C160.553 353.25 157.759 350.456 157.759 347.023V318.133C157.759 314.698 160.553 311.905 163.986 311.905H343.484C346.919 311.905 349.711 314.698 349.711 318.133V347.023C349.711 350.456 346.919 353.25 343.484 353.25Z" fill="black"/>
<path d="M317.945 352.151H328.057V312.851H317.945V352.151ZM328.529 353H317.471C317.211 353 317 352.81 317 352.575V312.426C317 312.19 317.211 312 317.471 312H328.529C328.789 312 329 312.19 329 312.426V352.575C329 352.81 328.789 353 328.529 353Z" fill="black"/>
<path d="M181.945 352.151H192.057V312.851H181.945V352.151ZM192.529 353H181.471C181.211 353 181 352.81 181 352.575V312.426C181 312.19 181.211 312 181.471 312H192.529C192.789 312 193 312.19 193 312.426V352.575C193 352.81 192.789 353 192.529 353Z" fill="black"/>
<path d="M230.055 339.902V338.566L240.285 321.199V323.625L231.566 338.566H240.285V339.902H230.055ZM241.867 345V320.355H243.309V338.566H245.207V339.902H243.309V345H241.867ZM254.408 345C253.635 344.953 252.896 344.73 252.193 344.332C249.404 342.715 248.01 338.801 248.01 332.59C248.01 329.074 248.537 326.25 249.592 324.117C250.763 321.797 252.381 320.578 254.443 320.461V321.797C253.717 321.82 252.967 322.195 252.193 322.922C250.435 324.633 249.521 327.328 249.451 331.008V333.082C249.451 336.996 250.154 339.914 251.56 341.836C252.427 343.031 253.377 343.641 254.408 343.664V345ZM256.588 345V343.664C259.892 343.172 261.556 339.645 261.58 333.082V331.008C261.58 327.984 260.888 325.559 259.506 323.73C258.545 322.465 257.56 321.82 256.552 321.797V320.461C257.537 320.531 258.451 320.871 259.295 321.48C261.756 323.332 262.986 327.035 262.986 332.59C262.986 336.504 262.4 339.551 261.228 341.73C260.08 343.816 258.533 344.906 256.588 345ZM265.437 339.902V338.566L275.667 321.199V323.625L266.949 338.566H275.667V339.902H265.437ZM277.25 345V320.355H278.691V338.566H280.589V339.902H278.691V345H277.25Z" fill="black"/>
</g>
<defs>
<clipPath id="clip0_1123_3160">
<rect width="350" height="353.571" fill="white"/>
</clipPath>
</defs>
</svg>
