<svg width="341" height="338" viewBox="0 0 341 338" fill="none" xmlns="http://www.w3.org/2000/svg">
<path d="M161.646 20.7953C148.335 21.1697 137.838 31.4153 138.209 43.6769C138.616 57.9509 153.178 67.7537 167.776 64.5425L166.996 55.2869C166.826 53.7529 166.958 52.2003 167.384 50.7176C167.809 49.2351 168.52 47.8516 169.477 46.6464C170.433 45.4411 171.616 44.4376 172.956 43.6933C174.297 42.9492 175.771 42.4786 177.292 42.3089L186.335 41.5241C185.59 29.6405 174.684 20.4191 161.646 20.7953Z" fill="#F1F1F1"/>
<path d="M291.762 164.743C291.855 165.559 291.785 166.384 291.559 167.173C291.332 167.961 290.954 168.697 290.445 169.337C289.934 169.978 289.304 170.509 288.59 170.901C287.876 171.295 287.091 171.542 286.282 171.626C285.472 171.713 284.654 171.635 283.874 171.401C283.094 171.166 282.368 170.779 281.738 170.258C281.107 169.738 280.586 169.099 280.202 168.375C279.819 167.651 279.581 166.858 279.503 166.041L278.521 156.681C278.366 155.049 278.855 153.422 279.883 152.153C280.913 150.883 282.396 150.075 284.013 149.904C285.629 149.733 287.248 150.213 288.515 151.239C289.783 152.265 290.597 153.755 290.78 155.383L291.762 164.743Z" fill="#F1F1F1"/>
<path d="M223.825 51.9408C224.35 53.1828 224.748 54.4762 225.01 55.8001C226.026 53.6489 226.626 51.3218 226.776 48.9438C225.724 50.1048 224.741 51.0876 223.825 51.9408Z" fill="#FADCFF"/>
<path d="M131.74 98.8994C132.032 100.515 132.581 102.071 133.366 103.509C135.974 103.509 138.854 103.169 139.564 102.111C139.666 101.931 139.768 101.734 139.869 101.529C138.887 103.48 135.335 101.5 131.74 98.8994Z" fill="#FADCFF"/>
<path d="M42.0958 174.852C35.7966 165.733 -4.26768 199.031 1.48895 207.432L2.4707 208.319C10.803 212.999 47.0064 182.025 42.0958 174.852Z" fill="#FADCFF"/>
<path d="M110.642 292.401C102.409 296.349 127.869 342.661 135.632 336.082C140.276 329.285 117.145 289.26 110.642 292.401Z" fill="#FADCFF"/>
<path d="M33.1887 203.812C33.03 204.401 32.9845 205.017 33.0548 205.623C33.394 207.809 36.1696 207.911 38.0332 207.398C36.7282 205.827 35.0661 204.597 33.1887 203.812Z" fill="#FADCFF"/>
<path d="M51.1708 185.985C52.4578 187.591 53.7787 189.195 54.9639 190.665C55.1624 190.093 55.2877 189.495 55.337 188.891C55.3709 188.378 55.272 187.863 55.0501 187.4C54.8282 186.936 54.4909 186.54 54.071 186.246C53.6514 185.953 53.1634 185.777 52.6552 185.73C52.1468 185.685 51.6354 185.773 51.1708 185.985Z" fill="#FADCFF"/>
<path d="M112.809 116.8C112.433 116.841 112.079 116.993 111.789 117.237C111.499 117.481 111.288 117.806 111.181 118.171C111.075 118.536 111.078 118.925 111.191 119.288C111.304 119.651 111.521 119.972 111.815 120.211C112.108 120.45 112.466 120.596 112.842 120.63C113.218 120.664 113.595 120.585 113.926 120.402C114.257 120.22 114.528 119.943 114.703 119.606C114.878 119.269 114.95 118.887 114.91 118.508C114.886 118.256 114.813 118.01 114.694 117.787C114.575 117.563 114.413 117.366 114.217 117.206C114.021 117.047 113.796 116.929 113.554 116.859C113.312 116.789 113.058 116.769 112.809 116.8Z" fill="#FADCFF"/>
<path d="M99.2622 132.674C98.887 132.715 98.5322 132.867 98.2425 133.111C97.9529 133.355 97.7416 133.68 97.6352 134.045C97.5287 134.41 97.532 134.799 97.6447 135.162C97.7575 135.525 97.9744 135.847 98.2682 136.086C98.562 136.325 98.9193 136.47 99.2953 136.504C99.6712 136.538 100.049 136.459 100.38 136.277C100.711 136.094 100.981 135.817 101.156 135.48C101.331 135.143 101.403 134.761 101.363 134.383C101.337 134.131 101.262 133.888 101.142 133.665C101.022 133.443 100.86 133.247 100.665 133.088C100.469 132.93 100.245 132.812 100.004 132.741C99.7636 132.669 99.5114 132.647 99.2622 132.674Z" fill="#FADCFF"/>
<path d="M107.29 153.645C106.914 153.685 106.559 153.837 106.269 154.08C105.979 154.324 105.768 154.649 105.661 155.014C105.554 155.379 105.557 155.768 105.67 156.132C105.782 156.495 105.999 156.817 106.293 157.056C106.587 157.295 106.944 157.44 107.32 157.475C107.696 157.509 108.074 157.43 108.405 157.247C108.736 157.065 109.007 156.788 109.182 156.451C109.357 156.113 109.429 155.732 109.389 155.353C109.362 155.102 109.287 154.858 109.167 154.636C109.047 154.415 108.885 154.219 108.69 154.06C108.495 153.901 108.271 153.783 108.031 153.712C107.791 153.641 107.539 153.618 107.29 153.645Z" fill="#FADCFF"/>
<path d="M89.6786 129.055C89.3032 129.095 88.9482 129.247 88.6583 129.491C88.3684 129.734 88.1567 130.06 88.0501 130.425C87.9434 130.79 87.9466 131.179 88.0591 131.542C88.1715 131.905 88.3884 132.227 88.6822 132.466C88.9758 132.705 89.3334 132.851 89.7093 132.885C90.0852 132.919 90.4628 132.84 90.7942 132.658C91.1255 132.475 91.396 132.198 91.5709 131.861C91.746 131.524 91.8179 131.142 91.7778 130.763C91.7513 130.512 91.676 130.269 91.5561 130.047C91.4363 129.825 91.2742 129.629 91.0793 129.47C90.8844 129.312 90.6602 129.193 90.4199 129.122C90.1797 129.051 89.9276 129.028 89.6786 129.055Z" fill="#FADCFF"/>
<path d="M128.931 124.308C128.555 124.349 128.2 124.5 127.91 124.744C127.62 124.988 127.409 125.313 127.302 125.679C127.196 126.044 127.199 126.433 127.312 126.796C127.424 127.159 127.641 127.481 127.935 127.72C128.229 127.959 128.587 128.104 128.963 128.138C129.339 128.172 129.717 128.093 130.048 127.91C130.379 127.728 130.649 127.45 130.824 127.113C130.999 126.775 131.071 126.393 131.03 126.015C131.003 125.764 130.928 125.521 130.808 125.299C130.688 125.077 130.526 124.882 130.331 124.723C130.136 124.565 129.912 124.446 129.672 124.375C129.432 124.304 129.18 124.281 128.931 124.308Z" fill="#FADCFF"/>
<path d="M117.889 139.882C117.514 139.922 117.159 140.074 116.869 140.318C116.579 140.562 116.368 140.888 116.262 141.253C116.155 141.618 116.159 142.007 116.272 142.37C116.385 142.733 116.602 143.055 116.896 143.293C117.19 143.532 117.547 143.678 117.923 143.711C118.299 143.745 118.677 143.666 119.008 143.483C119.339 143.301 119.609 143.023 119.784 142.686C119.959 142.348 120.03 141.966 119.99 141.588C119.963 141.337 119.888 141.093 119.768 140.871C119.648 140.649 119.486 140.454 119.29 140.295C119.095 140.136 118.871 140.018 118.631 139.947C118.39 139.876 118.138 139.854 117.889 139.882Z" fill="#FADCFF"/>
<path d="M137.702 147.121C137.327 147.162 136.972 147.313 136.682 147.557C136.392 147.801 136.181 148.126 136.074 148.491C135.967 148.856 135.97 149.245 136.083 149.608C136.195 149.972 136.412 150.293 136.706 150.532C137 150.771 137.357 150.917 137.733 150.951C138.109 150.985 138.487 150.906 138.818 150.724C139.149 150.542 139.42 150.265 139.595 149.927C139.77 149.59 139.842 149.208 139.801 148.83C139.775 148.578 139.7 148.335 139.58 148.113C139.46 147.891 139.298 147.695 139.103 147.537C138.908 147.378 138.684 147.26 138.444 147.188C138.203 147.117 137.951 147.094 137.702 147.121Z" fill="#FADCFF"/>
<path d="M145.931 113.994C145.556 114.034 145.201 114.186 144.911 114.43C144.621 114.674 144.409 114.999 144.303 115.364C144.196 115.729 144.199 116.118 144.312 116.481C144.424 116.844 144.641 117.166 144.935 117.405C145.229 117.644 145.586 117.79 145.962 117.824C146.338 117.858 146.715 117.779 147.047 117.597C147.378 117.415 147.648 117.137 147.824 116.8C147.999 116.463 148.071 116.081 148.03 115.702C148.007 115.45 147.934 115.205 147.815 114.981C147.696 114.758 147.534 114.56 147.339 114.401C147.143 114.242 146.918 114.124 146.676 114.054C146.434 113.984 146.181 113.964 145.931 113.994Z" fill="#FADCFF"/>
<path d="M163.678 146.3C163.302 146.341 162.947 146.492 162.657 146.736C162.368 146.98 162.156 147.305 162.049 147.67C161.943 148.035 161.946 148.424 162.058 148.787C162.171 149.151 162.387 149.472 162.681 149.711C162.975 149.95 163.332 150.096 163.708 150.13C164.084 150.164 164.462 150.085 164.793 149.903C165.125 149.721 165.395 149.444 165.57 149.106C165.745 148.769 165.817 148.387 165.777 148.009C165.723 147.502 165.471 147.037 165.078 146.716C164.684 146.396 164.181 146.246 163.678 146.3Z" fill="#FADCFF"/>
<path d="M163.746 128.371C163.995 128.344 164.236 128.269 164.456 128.148C164.676 128.027 164.871 127.864 165.028 127.667C165.186 127.47 165.303 127.244 165.373 127.002C165.444 126.759 165.466 126.505 165.44 126.254C165.373 125.757 165.117 125.307 164.726 124.997C164.335 124.688 163.839 124.545 163.345 124.598C162.851 124.652 162.397 124.898 162.08 125.284C161.762 125.669 161.607 126.165 161.646 126.664C161.673 126.916 161.748 127.159 161.868 127.381C161.988 127.603 162.149 127.799 162.345 127.957C162.54 128.116 162.764 128.234 163.004 128.305C163.245 128.376 163.497 128.398 163.746 128.371Z" fill="#FADCFF"/>
<path d="M184.439 150.365C184.064 150.405 183.709 150.557 183.418 150.801C183.129 151.044 182.916 151.37 182.811 151.735C182.704 152.1 182.708 152.489 182.82 152.852C182.933 153.215 183.149 153.537 183.443 153.776C183.736 154.015 184.095 154.161 184.469 154.195C184.846 154.229 185.223 154.15 185.555 153.968C185.887 153.785 186.156 153.508 186.331 153.171C186.506 152.834 186.578 152.452 186.538 152.073C186.511 151.822 186.436 151.579 186.317 151.357C186.197 151.135 186.035 150.939 185.84 150.78C185.644 150.622 185.421 150.503 185.18 150.432C184.941 150.361 184.687 150.338 184.439 150.365Z" fill="#FADCFF"/>
<path d="M186.81 130.012C186.435 130.052 186.079 130.204 185.789 130.448C185.499 130.692 185.287 131.017 185.182 131.382C185.075 131.748 185.078 132.137 185.191 132.5C185.303 132.863 185.521 133.185 185.814 133.424C186.108 133.663 186.465 133.808 186.842 133.842C187.218 133.876 187.595 133.797 187.927 133.614C188.257 133.432 188.529 133.154 188.703 132.817C188.878 132.479 188.95 132.097 188.909 131.719C188.882 131.467 188.807 131.224 188.687 131.002C188.568 130.781 188.405 130.585 188.211 130.426C188.014 130.268 187.791 130.15 187.55 130.079C187.311 130.007 187.058 129.985 186.81 130.012Z" fill="#FADCFF"/>
<path d="M203.742 123.182C203.703 122.803 203.551 122.445 203.31 122.153C203.067 121.86 202.746 121.647 202.384 121.539C202.021 121.432 201.636 121.435 201.275 121.548C200.915 121.662 200.597 121.88 200.36 122.177C200.122 122.473 199.978 122.833 199.944 123.212C199.91 123.592 199.988 123.972 200.169 124.307C200.351 124.641 200.625 124.913 200.959 125.09C201.293 125.266 201.673 125.339 202.048 125.298C202.298 125.272 202.539 125.196 202.759 125.075C202.978 124.954 203.173 124.791 203.33 124.594C203.487 124.397 203.605 124.172 203.676 123.929C203.746 123.687 203.769 123.433 203.742 123.182Z" fill="#FADCFF"/>
<path d="M260.266 16.3208C260.059 13.6728 258.924 11.1857 257.062 9.30687C255.198 7.42803 252.733 6.28053 250.107 6.07058C247.482 5.86061 244.868 6.60199 242.735 8.16153C240.602 9.72087 239.092 11.9963 238.475 14.5784C235.415 13.1425 232.04 12.5253 228.675 12.7863C225.31 13.0473 222.07 14.1777 219.264 16.0686C216.458 17.9595 214.183 20.547 212.656 23.5821C211.13 26.6173 210.405 29.9975 210.55 33.3974C214.629 32.2824 218.822 31.6404 223.045 31.484C223.274 32.8829 223.589 34.2657 223.993 35.624C224.366 36.4772 224.941 36.5456 225.956 34.9742C228.227 31.6622 232.832 36.785 227.447 40.7467C229.771 44.8032 232.723 48.4585 236.193 51.5738C240.447 50.1921 244.11 47.3961 246.584 43.6428C249.056 39.8896 250.193 35.4013 249.809 30.9116C249.74 30.0877 249.62 29.2691 249.452 28.46C249.697 28.4612 249.94 28.4474 250.182 28.4186C251.632 28.2918 253.044 27.8786 254.334 27.2019C255.627 26.5255 256.773 25.599 257.708 24.4757C258.645 23.3523 259.354 22.0539 259.791 20.6546C260.23 19.2555 260.391 17.7827 260.266 16.3208Z" fill="#FADCFF"/>
<path d="M116.738 196.265L117.111 210.125L121.948 205.721C119.838 202.792 118.089 199.619 116.738 196.265Z" fill="#FADCFF"/>
<path d="M147.829 132.982L152.637 139.882L152.909 148.727L147.829 132.982Z" fill="#FADCFF"/>
<path d="M139.53 86.229C140.119 86.1202 140.651 85.8034 141.029 85.3356C141.408 84.8676 141.61 84.2792 141.597 83.6753C141.585 83.0714 141.36 82.4916 140.963 82.0396C140.565 81.5878 140.021 81.2932 139.428 81.2088C139.887 80.8707 140.22 80.3867 140.372 79.8348C140.525 79.2829 140.489 78.6952 140.27 78.1664C140.051 77.6377 139.662 77.1987 139.165 76.9203C138.669 76.6418 138.094 76.5399 137.533 76.6314C137.82 76.1502 137.942 75.5868 137.88 75.0286C137.817 74.4705 137.574 73.9486 137.188 73.544C136.801 73.1394 136.293 72.8746 135.742 72.7907C135.192 72.7068 134.629 72.8085 134.141 73.08C134.258 72.507 134.176 71.9112 133.91 71.3916C133.644 70.8721 133.209 70.4601 132.678 70.2246C132.147 69.989 131.552 69.944 130.993 70.0972C130.433 70.2502 129.942 70.592 129.602 71.0658C129.547 70.4502 129.281 69.8731 128.85 69.4341C128.418 68.995 127.849 68.7216 127.238 68.6608C126.628 68.6001 126.017 68.7558 125.508 69.1011C125 69.4465 124.627 69.9598 124.454 70.5528C124.214 70.0209 123.802 69.5878 123.284 69.3255C122.766 69.0633 122.175 68.9877 121.609 69.1113C121.043 69.2352 120.536 69.5507 120.172 70.0056C119.809 70.4604 119.611 71.0271 119.611 71.6112C119.189 71.2447 118.658 71.0285 118.102 70.9959C117.545 70.9632 116.994 71.1158 116.532 71.4303C116.07 71.7447 115.723 72.2035 115.545 72.7362C115.367 73.2688 115.368 73.8455 115.547 74.3778C115.02 74.1801 114.443 74.1652 113.907 74.3356C113.371 74.5061 112.907 74.8521 112.588 75.3188C112.269 75.7855 112.114 76.3462 112.146 76.912C112.179 77.4777 112.399 78.0163 112.769 78.4422C112.172 78.409 111.582 78.5901 111.103 78.9532C110.625 79.3162 110.29 79.8379 110.156 80.4263C110.022 81.0145 110.099 81.6316 110.373 82.1683C110.647 82.7053 111.1 83.1272 111.652 83.3598C111.065 83.4744 110.537 83.7955 110.163 84.2659C109.789 84.7362 109.592 85.3252 109.609 85.9278C109.625 86.5306 109.853 87.1081 110.252 87.557C110.651 88.0061 111.195 88.2977 111.788 88.38C111.339 88.7236 111.016 89.2087 110.872 89.7582C110.728 90.3079 110.771 90.8902 110.993 91.4126C111.215 91.9351 111.604 92.3677 112.098 92.6413C112.592 92.9151 113.163 93.0142 113.719 92.9232C113.438 93.4066 113.323 93.9699 113.391 94.5259C113.459 95.0819 113.707 95.5999 114.096 95.9999C114.485 96.3999 114.994 96.6598 115.544 96.7393C116.094 96.8191 116.654 96.714 117.139 96.4404C117.027 97.012 117.112 97.6051 117.381 98.121C117.65 98.6369 118.086 99.0444 118.616 99.2757C119.146 99.5072 119.739 99.5486 120.296 99.3929C120.853 99.2372 121.34 98.8941 121.677 98.4204C121.706 98.8468 121.84 99.2592 122.066 99.6206C122.293 99.982 122.604 100.281 122.973 100.491C123.343 100.701 123.758 100.815 124.182 100.824C124.606 100.832 125.025 100.734 125.402 100.539C125.707 100.163 129.864 95.0058 131.33 93.1266C127.74 89.0298 130.719 86.3658 132.651 89.064C133.666 90.5328 135.15 90.1224 134.275 85.7502C135.397 85.258 136.473 84.664 137.488 83.9754C138.202 86.7402 138.738 89.0982 139.18 91.0782C139.694 90.9424 140.154 90.6478 140.493 90.2356C140.833 89.8234 141.037 89.3143 141.075 88.7797C141.114 88.2451 140.986 87.7118 140.709 87.2544C140.432 86.797 140.019 86.4385 139.53 86.229Z" fill="#FADCFF"/>
<path d="M139.191 91.078C138.752 89.098 138.21 86.7418 137.499 83.9752C136.484 84.6639 135.408 85.2579 134.286 85.75C135.168 90.1222 133.688 90.5236 132.662 89.0638C130.752 86.3494 127.751 89.0296 131.341 93.1264C129.884 95.0056 125.718 100.163 125.413 100.539C125.036 100.734 124.617 100.832 124.193 100.824C123.769 100.815 123.354 100.701 122.985 100.491C122.616 100.281 122.304 99.9817 122.077 99.6205C121.851 99.259 121.717 98.8466 121.688 98.4202C121.351 98.8938 120.864 99.2371 120.307 99.3928C119.75 99.5483 119.157 99.5071 118.627 99.2756C118.097 99.0441 117.661 98.6366 117.392 98.1207C117.124 97.605 117.038 97.0119 117.15 96.4402C116.665 96.7138 116.105 96.8188 115.555 96.7392C115.005 96.6596 114.496 96.3997 114.107 95.9998C113.718 95.5996 113.47 95.0818 113.402 94.5257C113.334 93.9697 113.449 93.4065 113.73 92.923C113.174 93.0141 112.603 92.9149 112.109 92.6411C111.615 92.3674 111.226 91.9348 111.004 91.4125C110.782 90.8901 110.739 90.3076 110.883 89.7581C111.028 89.2085 111.35 88.7234 111.799 88.3798C111.206 88.2976 110.662 88.006 110.263 87.5569C109.864 87.1078 109.636 86.5305 109.62 85.9277C109.604 85.325 109.8 84.7359 110.174 84.2656C110.548 83.7954 111.076 83.4743 111.663 83.3596C111.111 83.1271 110.658 82.705 110.384 82.1682C110.11 81.6314 110.034 81.0144 110.167 80.4262C110.301 79.8377 110.637 79.3159 111.115 78.9529C111.593 78.59 112.183 78.4089 112.781 78.442C112.41 78.0161 112.19 77.4776 112.158 76.9118C112.125 76.3459 112.28 75.7852 112.599 75.3187C112.918 74.8519 113.382 74.506 113.918 74.3355C114.454 74.165 115.031 74.1798 115.558 74.3776C115.384 73.8468 115.387 73.2733 115.566 72.7443C115.746 72.2155 116.092 71.7601 116.551 71.4478C117.011 71.1355 117.559 70.9834 118.113 71.0143C118.666 71.0455 119.195 71.2582 119.617 71.62C119.617 71.0359 119.815 70.4691 120.178 70.0142C120.542 69.5596 121.049 69.2438 121.615 69.1202C122.181 68.9965 122.772 69.0719 123.29 69.3342C123.807 69.5965 124.22 70.0297 124.46 70.5616C124.633 69.9687 125.006 69.4553 125.514 69.1099C126.022 68.7645 126.634 68.6088 127.244 68.6696C127.854 68.7305 128.424 69.0039 128.856 69.4429C129.287 69.8819 129.553 70.459 129.608 71.0746C129.948 70.6009 130.439 70.259 130.998 70.1059C131.558 69.9529 132.153 69.9979 132.684 70.2335C133.215 70.4689 133.65 70.8808 133.916 71.4004C134.182 71.9201 134.264 72.5159 134.147 73.0888C134.635 72.8174 135.198 72.7157 135.748 72.7996C136.299 72.8834 136.807 73.1482 137.193 73.5529C137.58 73.9575 137.823 74.4793 137.886 75.0375C137.948 75.5957 137.826 76.1591 137.539 76.6402C138.1 76.5488 138.675 76.6505 139.171 76.9289C139.668 77.2074 140.057 77.6464 140.276 78.1753C140.495 78.7039 140.531 79.2916 140.378 79.8437C140.226 80.3956 139.893 80.8796 139.434 81.2176C140.027 81.302 140.571 81.5965 140.969 82.0485C141.366 82.5005 141.591 83.0803 141.603 83.684C141.615 84.2879 141.414 84.8765 141.035 85.3445C140.657 85.8123 140.125 86.1289 139.536 86.2378C140.022 86.4486 140.431 86.8068 140.706 87.2626C140.981 87.7183 141.108 88.2493 141.071 88.7814C141.033 89.3137 140.831 89.8207 140.495 90.2322C140.158 90.6439 139.702 90.9394 139.191 91.078Z" stroke="#272727" stroke-width="1.4" stroke-linecap="round" stroke-linejoin="round"/>
<path d="M139.598 77.0761L148.675 76.3255C149.759 76.2301 150.85 76.3516 151.887 76.6833C152.924 77.0149 153.886 77.55 154.717 78.2578C155.548 78.9657 156.232 79.8322 156.729 80.8075C157.227 81.7829 157.528 82.848 157.616 83.9413L160.088 113.891" stroke="#272727" stroke-width="1.4" stroke-linecap="round" stroke-linejoin="round"/>
<path d="M153.247 148.248L154.635 148.145C155.848 148.132 157.032 147.777 158.055 147.121" stroke="#272727" stroke-width="1.4" stroke-linecap="round" stroke-linejoin="round"/>
<path d="M90.3895 153.569L72.1701 155.14C69.9836 155.325 67.8141 154.626 66.1378 153.199C64.4617 151.771 63.4162 149.731 63.2308 147.526L58.5898 92.3362C58.4059 90.1307 59.0983 87.9419 60.5145 86.2511C61.9308 84.5604 63.9551 83.506 66.1421 83.32L110.691 79.5352" stroke="#272727" stroke-width="1.4" stroke-linecap="round" stroke-linejoin="round"/>
<path d="M149.048 260.505L257.557 251.283C260.52 251.028 263.261 249.597 265.179 247.304C267.097 245.01 268.035 242.044 267.785 239.056L261.485 164.435C261.232 161.447 259.813 158.683 257.539 156.749C255.266 154.816 252.325 153.87 249.362 154.121L191.385 159.041" stroke="#272727" stroke-width="1.4" stroke-linecap="round" stroke-linejoin="round"/>
<path d="M152.265 162.387L170.282 160.85" stroke="#272727" stroke-width="1.4" stroke-linecap="round" stroke-linejoin="round"/>
<path d="M210.72 39.3999L177.258 42.3033C174.194 42.6482 171.389 44.2039 169.459 46.6296C167.529 49.0555 166.632 52.1534 166.962 55.2453L173.669 133.077" stroke="#272727" stroke-width="1.4" stroke-linecap="round" stroke-linejoin="round"/>
<path d="M197.85 144.491L299.349 135.646C301.601 135.441 303.742 134.555 305.487 133.105C307.233 131.655 308.504 129.708 309.136 127.517" stroke="#272727" stroke-width="1.4" stroke-linecap="round" stroke-linejoin="round"/>
<path d="M305.884 78.75L302.869 43.4034C302.668 40.298 301.254 37.4 298.937 35.3448C296.618 33.2896 293.587 32.2447 290.508 32.4396L249.632 35.9928" stroke="#272727" stroke-width="1.4" stroke-linecap="round" stroke-linejoin="round"/>
<path d="M268.731 89.0298C265.243 94.5612 257.895 110.716 253.627 121.199C261.82 124.429 268.724 130.301 273.262 137.9" stroke="#272727" stroke-width="1.4" stroke-linecap="round" stroke-linejoin="round"/>
<path d="M214.173 106.72C215.412 113.152 217.029 119.504 219.015 125.743C217.152 132.811 216.408 139.095 215.528 142.954" stroke="#272727" stroke-width="1.4" stroke-linecap="round" stroke-linejoin="round"/>
<path d="M217.423 80.4238C214.865 84.4002 213.373 88.9767 213.089 93.7078" stroke="#272727" stroke-width="1.4" stroke-linecap="round" stroke-linejoin="round"/>
<path d="M253.593 121.233C244.043 128.167 225.991 131.853 219.016 125.742" stroke="#272727" stroke-width="1.4" stroke-linecap="round" stroke-linejoin="round"/>
<path d="M249.259 123.863C254.353 127.881 258.435 133.052 261.177 138.958" stroke="#272727" stroke-width="1.4" stroke-linecap="round" stroke-linejoin="round"/>
<path d="M225.033 55.7605C226.032 53.6183 226.623 51.306 226.775 48.9438C225.725 50.1048 224.74 51.0876 223.824 51.9408" stroke="#272727" stroke-width="1.4" stroke-linecap="round" stroke-linejoin="round"/>
<path d="M263.889 98.1827L276.014 118.843C285.394 135.988 304.931 141.381 317.196 115.77C322.985 103.68 325.73 95.5529 330.81 87.1505C322.503 84.7622 314.938 80.2718 308.837 74.1059C303.198 82.6638 298.184 91.6231 293.832 100.913C269.279 48.2867 266.264 57.5657 249.907 56.6531C244.916 56.5143 240.109 54.7263 236.225 51.5645" stroke="#272727" stroke-width="1.4" stroke-linecap="round" stroke-linejoin="round"/>
<path d="M200.458 98.5915C205.301 81.9937 216.15 74.3221 220.912 69.0859C223.153 66.9187 224.647 64.0835 225.17 60.9974C225.694 57.9111 225.223 54.7368 223.825 51.9409C215.291 59.5225 210.584 53.4781 210.584 33.4009" stroke="#272727" stroke-width="1.4" stroke-linecap="round" stroke-linejoin="round"/>
<path d="M251.968 56.7217C245.18 62.2228 239.054 68.5056 233.713 75.4417C232.876 76.4923 231.783 77.3063 230.541 77.8036C229.299 78.301 227.949 78.465 226.625 78.2794C225.302 78.0938 224.047 77.5651 222.987 76.7451C221.927 75.925 221.095 74.8414 220.574 73.6003C220.138 72.5743 219.76 71.6203 219.422 70.6969" stroke="#272727" stroke-width="1.4" stroke-linecap="round" stroke-linejoin="round"/>
<path d="M293.827 100.914L289.798 110.067" stroke="#272727" stroke-width="1.4" stroke-linecap="round" stroke-linejoin="round"/>
<path d="M125.408 100.539C120.674 106.659 117.323 106.258 108.407 110.272C90.2539 118.435 96.4853 151.151 96.4853 151.151" stroke="#272727" stroke-width="1.4" stroke-linecap="round" stroke-linejoin="round"/>
<path d="M139.191 91.0781C140.671 97.9955 140.537 100.643 139.565 102.074C138.851 103.135 135.975 103.475 133.367 103.475" stroke="#272727" stroke-width="1.4" stroke-linecap="round" stroke-linejoin="round"/>
<path d="M139.875 101.5C138.927 103.48 135.332 101.5 131.741 98.8701C132.419 102.013 132.892 105.779 135.432 105.939C157.948 107.363 160.326 109.935 179.866 143.739" stroke="#272727" stroke-width="1.4" stroke-linecap="round" stroke-linejoin="round"/>
<path d="M177.462 139.539C178.308 137.149 183.558 126.253 186.606 116.418C193.282 115.694 199.992 117.455 205.47 121.37C203.369 131.41 197.275 146.644 192.024 157.84C191.131 159.732 189.805 161.383 188.154 162.656C186.503 163.93 184.577 164.789 182.531 165.162C180.487 165.536 178.383 165.414 176.394 164.806C174.406 164.197 172.589 163.121 171.095 161.665C162.327 152.971 154.536 143.329 147.863 132.913" stroke="#272727" stroke-width="1.4" stroke-linecap="round" stroke-linejoin="round"/>
<path d="M147.897 132.914L152.909 148.727" stroke="#272727" stroke-width="1.4" stroke-linecap="round" stroke-linejoin="round"/>
<path d="M110.881 161.637C120.94 164.877 138.144 163.651 151.59 159.963C153.621 155.932 152.775 140.019 152.775 140.019" stroke="#272727" stroke-width="1.4" stroke-linecap="round" stroke-linejoin="round"/>
<path d="M110.778 160.85C106.444 167.134 97.9258 167.366 94.0131 160.816C89.0829 152.536 86.9695 140.735 85.9199 127.62C85.9199 127.62 93.5954 125.143 96.8084 126.114" stroke="#272727" stroke-width="1.4" stroke-linecap="round" stroke-linejoin="round"/>
<path d="M121.948 205.72L86.1859 237.652C83.8203 239.751 80.7808 240.914 77.6302 240.926C74.4797 240.937 71.4315 239.798 69.0499 237.719L33.8658 207.023" stroke="#272727" stroke-width="1.4" stroke-linecap="round" stroke-linejoin="round"/>
<path d="M81.145 211.907L54.5253 186.601" stroke="#272727" stroke-width="1.4" stroke-linecap="round" stroke-linejoin="round"/>
<path d="M105.325 127.382C105.325 127.382 111.215 151.322 110.846 162.25C103.68 166.357 98.1429 172.838 95.1734 180.59C90.8483 192.375 75.8686 206.716 75.8686 206.716" stroke="#272727" stroke-width="1.4" stroke-linecap="round" stroke-linejoin="round"/>
<path d="M151.588 159.962C158.225 182.741 158.885 197.942 159.342 220C159.707 226.253 158.858 232.517 156.843 238.442L141.333 282.429C131.848 281.425 122.729 278.185 114.714 272.97L130.225 228.163C130.524 220.509 127.978 213.019 123.085 207.16C118.242 201.211 115.208 193.975 114.348 186.327" stroke="#272727" stroke-width="1.4" stroke-linecap="round" stroke-linejoin="round"/>
<path d="M117.62 106.618C117.62 106.618 123.037 112.628 135.907 105.968" stroke="#272727" stroke-width="1.4" stroke-linecap="round" stroke-linejoin="round"/>
<path d="M88.5956 126.835C88.4898 121.624 87.9114 116.434 86.8677 111.33C85.8689 107.401 84.4375 103.598 82.5998 99.99C79.9045 94.6908 80.7791 93.2562 85.1077 98.0784C89.3823 103.489 92.9026 109.464 95.5714 115.837" stroke="#272727" stroke-width="1.4" stroke-linecap="round" stroke-linejoin="round"/>
<path d="M94.0685 112.462C96.2194 114.921 97.5064 107.422 98.315 105.763C99.4324 103.475 100.814 100.984 100.719 108.018C100.693 109.964 100.923 113.073 101.228 116.145" stroke="#272727" stroke-width="1.4" stroke-linecap="round" stroke-linejoin="round"/>
<path d="M84.8362 105.012C83.8545 103.919 81.6232 101.736 80.9753 101.118C78.0157 98.2636 77.4267 99.2698 77.7622 99.8584C79.0474 102.13 81.4572 105.629 82.5818 107.778C84.381 111.26 88.0331 117.887 88.2366 121.302" stroke="#272727" stroke-width="1.4" stroke-linecap="round" stroke-linejoin="round"/>
<path d="M82.466 107.573C81.8894 107.165 81.4128 106.828 81.1451 106.652C77.7143 104.396 77.3519 105.422 77.7536 105.932C79.3797 107.98 82.3321 111.015 83.7833 112.966C85.4871 115.37 86.9609 117.932 88.1851 120.616" stroke="#272727" stroke-width="1.4" stroke-linecap="round" stroke-linejoin="round"/>
<path d="M203.88 120.243C205.697 114.781 207.985 109.49 210.722 104.432C213.037 100.615 215.775 97.0743 218.883 93.8788C223.445 89.1988 222.988 87.3556 216.851 91.0096C210.591 95.3208 204.94 100.467 200.053 106.31" stroke="#272727" stroke-width="1.4" stroke-linecap="round" stroke-linejoin="round"/>
<path d="M202.9 103.07C199.483 105.639 200.744 96.8654 200.424 94.8008C199.994 92.0324 199.375 88.9274 197.172 96.4064C196.563 98.453 194.089 104.796 189.425 116.246" stroke="#272727" stroke-width="1.4" stroke-linecap="round" stroke-linejoin="round"/>
<path d="M214.884 98.4202C216.273 97.567 219.322 96.0298 220.202 95.587C224.266 93.5368 224.532 94.831 224.029 95.3134C221.946 97.3096 218.274 100.2 216.409 102.108C213.399 105.188 207.4 110.988 206.045 114.541" stroke="#272727" stroke-width="1.4" stroke-linecap="round" stroke-linejoin="round"/>
<path d="M216.578 101.939C217.323 101.7 217.933 101.497 218.272 101.399C222.613 100.058 222.672 101.362 222.065 101.776C219.684 103.396 215.6 105.64 213.428 107.239C210.857 109.22 208.478 111.438 206.316 113.865" stroke="#272727" stroke-width="1.4" stroke-linecap="round" stroke-linejoin="round"/>
<path d="M42.096 174.852C36.0681 166.12 -0.883275 196.243 0.994545 206.215C1.2855 207.76 2.60997 209.142 5.69981 208.719C17.5755 207.097 46.5496 181.314 42.096 174.852Z" stroke="#272727" stroke-width="1.4" stroke-linecap="round" stroke-linejoin="round"/>
<path d="M42.0962 174.852C43.9579 177.242 50.359 184.961 54.9321 190.692" stroke="#272727" stroke-width="1.4" stroke-linecap="round" stroke-linejoin="round"/>
<path d="M137.601 281.952C136.173 287.381 128.158 299.297 134.315 314.566C137.469 322.386 139.293 333.789 135.029 336.658" stroke="#272727" stroke-width="1.4" stroke-linecap="round" stroke-linejoin="round"/>
<path d="M109.559 293.427C110.573 291.123 114.259 282.717 117.552 274.887" stroke="#272727" stroke-width="1.4" stroke-linecap="round" stroke-linejoin="round"/>
<path d="M110.642 292.401C103.07 296.031 123.283 333.36 132.555 336.765C135.116 337.707 136.341 335.865 136.239 333.124C135.818 321.719 116.495 289.6 110.642 292.401Z" stroke="#272727" stroke-width="1.4" stroke-linecap="round" stroke-linejoin="round"/>
<path d="M51.1392 185.985C51.6035 185.772 52.1145 185.684 52.6227 185.729C53.1309 185.774 53.6186 185.952 54.0382 186.246C54.4579 186.537 54.7951 186.935 55.0168 187.398C55.2386 187.862 55.3373 188.375 55.3036 188.888C54.7431 196.088 41.4788 208.422 35.5151 207.695C33.7301 207.475 32.5984 206.202 33.1946 203.78" stroke="#272727" stroke-width="1.4" stroke-linecap="round" stroke-linejoin="round"/>
<path d="M139.222 269.714L149.616 236.563C151.419 231.383 152.179 225.891 151.851 220.41C150.41 196.677 148.668 178.335 144.434 161.636" stroke="#272727" stroke-width="1.4" stroke-linecap="round" stroke-linejoin="round"/>
<path d="M118.939 260.743C126.627 266.641 135.938 269.995 145.592 270.34" stroke="#272727" stroke-width="1.4" stroke-linecap="round" stroke-linejoin="round"/>
<path d="M43.8901 215.766C54.1521 212.452 59.9105 204.966 63.3645 195.207" stroke="#272727" stroke-width="1.4" stroke-linecap="round" stroke-linejoin="round"/>
<path d="M116.738 196.265L87.9173 222.015C85.5466 224.145 82.4859 225.327 79.3113 225.34C76.1365 225.353 73.0665 224.195 70.6796 222.084L55.4731 208.627" stroke="#272727" stroke-width="1.4" stroke-linecap="round" stroke-linejoin="round"/>
<path d="M121.615 170.719C121.175 170.788 120.531 179.395 121.682 182.878C123.885 185.947 126.7 188.519 129.947 190.426C131.804 187.306 134.034 184.426 136.585 181.854C136.246 177.516 135.839 175.228 135.366 170.651C130.807 171.308 126.18 171.331 121.615 170.719Z" stroke="#272727" stroke-width="1.4" stroke-linecap="round" stroke-linejoin="round"/>
<path d="M102.413 168.979C104.152 169.004 105.859 169.448 107.392 170.276C104.275 171.812 101.126 179.636 101.126 179.636L94.1827 182.984" stroke="#272727" stroke-width="1.4" stroke-linecap="round" stroke-linejoin="round"/>
<path d="M322.749 57.3999C328.104 59.1063 331.081 61.8729 334.53 66.3135" stroke="#272727" stroke-width="1.4" stroke-linecap="round" stroke-linejoin="round"/>
<path d="M321.43 59.9326C323.299 61.8453 324.752 64.1297 325.696 66.64C326.64 69.1502 327.054 71.8313 326.915 74.5126" stroke="#272727" stroke-width="1.4" stroke-linecap="round" stroke-linejoin="round"/>
<path d="M331.724 62.9367C333.802 60.1762 335.54 57.1717 336.9 53.9889C339.399 48.0813 340.931 49.7211 339.542 55.3209C339.169 56.8239 338.798 58.1217 338.459 59.2143C337.481 62.3571 336.517 65.5305 335.613 68.7093C334.655 72.0861 328.295 86.3655 328.295 86.3655C322.335 84.7599 316.137 80.3895 311.295 76.3593C311.396 76.1541 313.972 71.3751 314.07 71.2023C314.595 70.247 314.818 69.1532 314.709 68.0669C314.6 66.9808 314.165 65.9539 313.462 65.1237C311.013 62.1609 307.733 57.7437 308.821 56.5503C310.507 54.7017 315.83 60.9531 318.676 61.3329C319.691 61.4679 320.505 58.3611 320.673 57.2343C320.98 55.1859 322.049 48.2163 322.13 47.5359C322.867 41.2035 325.11 42.2763 325.077 47.8761C325.043 53.2041 325.043 56.6529 325.043 56.6529" stroke="#272727" stroke-width="1.4" stroke-linecap="round" stroke-linejoin="round"/>
<path d="M324.612 58.0195C324.612 58.0195 328.306 46.3411 328.539 45.5545C330.376 39.4435 332.302 40.8421 331.385 46.3393C330.507 51.6007 329.555 58.0195 329.555 58.0195" stroke="#272727" stroke-width="1.4" stroke-linecap="round" stroke-linejoin="round"/>
<path d="M328.65 59.8984C330.417 56.3266 331.977 52.6544 333.323 48.9004C335.519 42.8884 337.132 44.4238 336.101 49.8922C335.535 53.2918 334.732 56.647 333.696 59.9326" stroke="#272727" stroke-width="1.4" stroke-linecap="round" stroke-linejoin="round"/>
<path d="M291.761 164.743C291.854 165.559 291.785 166.384 291.558 167.173C291.331 167.961 290.953 168.697 290.444 169.337C289.933 169.978 289.303 170.509 288.589 170.901C287.875 171.295 287.09 171.542 286.281 171.626C285.471 171.713 284.653 171.635 283.873 171.401C283.093 171.166 282.367 170.779 281.737 170.258C281.107 169.738 280.585 169.099 280.202 168.375C279.818 167.651 279.58 166.858 279.502 166.041L278.52 156.681C278.365 155.049 278.854 153.422 279.882 152.153C280.912 150.883 282.395 150.075 284.013 149.904C285.628 149.733 287.247 150.213 288.514 151.239C289.782 152.265 290.596 153.755 290.78 155.383L291.761 164.743Z" stroke="#272727" stroke-width="1.4" stroke-linecap="round" stroke-linejoin="round"/>
<path d="M274.49 162.284L274.963 166.894C275.109 168.311 275.532 169.686 276.205 170.939C276.878 172.192 277.79 173.299 278.888 174.195C279.984 175.093 281.248 175.763 282.601 176.17C283.955 176.575 285.376 176.708 286.781 176.56C288.188 176.411 289.55 175.986 290.792 175.307C292.034 174.627 293.132 173.709 294.023 172.602C294.912 171.495 295.578 170.222 295.979 168.856C296.381 167.49 296.513 166.058 296.367 164.641L295.894 160.031" stroke="#272727" stroke-width="1.4" stroke-linecap="round" stroke-linejoin="round"/>
<path d="M286.783 176.56L287.697 185.166" stroke="#272727" stroke-width="1.4" stroke-linecap="round" stroke-linejoin="round"/>
<path d="M283.125 185.645L292.236 184.687" stroke="#272727" stroke-width="1.4" stroke-linecap="round" stroke-linejoin="round"/>
<path d="M260.265 16.3207C260.054 13.6793 258.919 11.1998 257.061 9.32586C255.203 7.4517 252.745 6.30541 250.124 6.09195C247.506 5.87849 244.896 6.61181 242.765 8.16073C240.632 9.70963 239.116 11.9729 238.488 14.5459C241.269 15.8395 243.711 17.7695 245.623 20.1826C247.534 22.5955 248.861 25.4249 249.496 28.4455C251.008 28.4102 252.497 28.0626 253.871 27.4241C255.246 26.7859 256.474 25.8702 257.484 24.734C258.493 23.5979 259.26 22.265 259.738 20.818C260.217 19.3709 260.395 17.8402 260.265 16.3207Z" stroke="#272727" stroke-width="1.4" stroke-linecap="round" stroke-linejoin="round"/>
<path d="M249.803 30.9039C249.376 25.7302 246.955 20.9313 243.059 17.5376C239.164 14.1439 234.104 12.4258 228.964 12.7521C223.827 13.0785 219.02 15.4232 215.577 19.2831C212.135 23.143 210.329 28.2102 210.55 33.3969C214.629 32.282 218.822 31.6399 223.045 31.4835C223.274 32.8824 223.59 34.2652 223.993 35.6235C224.366 36.4767 224.941 36.5451 225.957 34.9737C228.227 31.6617 232.833 36.7845 227.447 40.7463C229.771 44.8028 232.724 48.458 236.194 51.5733C240.447 50.19 244.11 47.3924 246.582 43.6378C249.053 39.8832 250.19 35.3938 249.803 30.9039Z" stroke="#272727" stroke-width="1.4" stroke-linecap="round" stroke-linejoin="round"/>
<path d="M23.0288 146.165L30.1063 145.447" stroke="#272727" stroke-width="1.4" stroke-linecap="round" stroke-linejoin="round"/>
<path d="M42.6371 144.15L49.7164 143.433" stroke="#272727" stroke-width="1.4" stroke-linecap="round" stroke-linejoin="round"/>
<path d="M35.0171 131.342L35.7293 138.481" stroke="#272727" stroke-width="1.4" stroke-linecap="round" stroke-linejoin="round"/>
<path d="M37.0163 151.117L37.7267 158.254" stroke="#272727" stroke-width="1.4" stroke-linecap="round" stroke-linejoin="round"/>
<path d="M25.9759 136.262L31.4951 140.769" stroke="#272727" stroke-width="1.4" stroke-linecap="round" stroke-linejoin="round"/>
<path d="M41.2485 148.795L46.7695 153.336" stroke="#272727" stroke-width="1.4" stroke-linecap="round" stroke-linejoin="round"/>
<path d="M44.8398 134.314L40.3683 139.881" stroke="#272727" stroke-width="1.4" stroke-linecap="round" stroke-linejoin="round"/>
<path d="M32.4092 149.717L27.9056 155.284" stroke="#272727" stroke-width="1.4" stroke-linecap="round" stroke-linejoin="round"/>
<path d="M187.013 64.4056L182.908 54.2968C185.418 50.5342 186.631 46.0436 186.362 41.5168C185.618 29.6368 174.677 20.4118 161.64 20.788C148.329 21.1624 137.831 31.408 138.203 43.6696C138.572 56.6134 150.58 65.8798 163.698 65.1004C168.397 64.8016 172.928 63.2255 176.81 60.5392L187.013 64.4056Z" stroke="#272727" stroke-width="1.4" stroke-linecap="round" stroke-linejoin="round"/>
<path d="M108.984 59.2488C108.358 59.8536 107.568 60.2577 106.714 60.4098C105.86 60.5619 104.98 60.4554 104.187 60.1035C103.393 59.7516 102.72 59.1702 102.254 58.4327C101.788 57.6954 101.549 56.8352 101.568 55.961C101.587 55.0869 101.862 54.2378 102.36 53.5216C102.857 52.8052 103.553 52.2535 104.362 51.9365C105.17 51.6195 106.053 51.5513 106.9 51.7403C107.746 51.9295 108.518 52.3676 109.118 52.9992C109.919 53.8472 110.355 54.9809 110.33 56.1519C110.305 57.323 109.821 58.4365 108.984 59.2488Z" stroke="#272727" stroke-width="1.4" stroke-linecap="round" stroke-linejoin="round"/>
<path d="M290.101 0.986328L291.626 19.6343" stroke="#272727" stroke-width="1.4" stroke-linecap="round" stroke-linejoin="round"/>
<path d="M300.126 9.52393L281.635 11.0953" stroke="#272727" stroke-width="1.4" stroke-linecap="round" stroke-linejoin="round"/>
<path d="M38.0316 207.398C36.7426 205.805 35.0792 204.561 33.1924 203.78C29.908 202.583 26.6861 203.641 22.8591 204.735C15.1479 206.895 6.8815 211.586 2.54395 208.348" stroke="#272727" stroke-width="1.4" stroke-linecap="round" stroke-linejoin="round"/>
<path d="M117.111 210.13L116.738 196.265" stroke="#272727" stroke-width="1.4" stroke-linecap="round" stroke-linejoin="round"/>
</svg>
