<svg width="357" height="360" viewBox="0 0 357 360" fill="none" xmlns="http://www.w3.org/2000/svg">
<path d="M169.646 31.7953C156.335 32.1697 145.838 42.4153 146.209 54.6769C146.616 68.9509 161.178 78.7537 175.776 75.5425L174.996 66.2869C174.826 64.7529 174.958 63.2003 175.384 61.7176C175.809 60.2351 176.52 58.8516 177.477 57.6464C178.433 56.4411 179.616 55.4376 180.956 54.6933C182.297 53.9492 183.771 53.4786 185.292 53.3089L194.335 52.5241C193.59 40.6405 182.684 31.4191 169.646 31.7953Z" fill="#F1F1F1"/>
<path d="M299.762 175.743C299.855 176.559 299.785 177.384 299.559 178.173C299.332 178.961 298.954 179.697 298.445 180.337C297.934 180.978 297.304 181.509 296.59 181.901C295.876 182.295 295.091 182.542 294.282 182.626C293.472 182.713 292.654 182.635 291.874 182.401C291.094 182.166 290.368 181.779 289.738 181.258C289.107 180.738 288.586 180.099 288.202 179.375C287.819 178.651 287.581 177.858 287.503 177.041L286.521 167.681C286.366 166.049 286.855 164.422 287.883 163.153C288.913 161.883 290.396 161.075 292.013 160.904C293.629 160.733 295.248 161.213 296.515 162.239C297.783 163.265 298.597 164.755 298.78 166.383L299.762 175.743Z" fill="#F1F1F1"/>
<path d="M231.825 62.9408C232.35 64.1828 232.748 65.4762 233.01 66.8001C234.026 64.6489 234.626 62.3218 234.776 59.9438C233.724 61.1048 232.741 62.0876 231.825 62.9408Z" fill="#FADCFF"/>
<path d="M139.74 109.899C140.032 111.515 140.581 113.071 141.366 114.509C143.974 114.509 146.854 114.169 147.564 113.111C147.666 112.931 147.768 112.734 147.869 112.529C146.887 114.48 143.335 112.5 139.74 109.899Z" fill="#FADCFF"/>
<path d="M50.0958 185.852C43.7966 176.733 3.73232 210.031 9.48895 218.432L10.4707 219.319C18.803 223.999 55.0064 193.025 50.0958 185.852Z" fill="#FADCFF"/>
<path d="M118.642 303.401C110.409 307.349 135.869 353.661 143.632 347.082C148.276 340.285 125.145 300.26 118.642 303.401Z" fill="#FADCFF"/>
<path d="M41.1887 214.812C41.03 215.401 40.9845 216.017 41.0548 216.623C41.394 218.809 44.1696 218.911 46.0332 218.398C44.7282 216.827 43.0661 215.597 41.1887 214.812Z" fill="#FADCFF"/>
<path d="M59.1708 196.985C60.4578 198.591 61.7787 200.195 62.9639 201.665C63.1624 201.093 63.2877 200.495 63.337 199.891C63.3709 199.378 63.272 198.863 63.0501 198.4C62.8282 197.936 62.4909 197.54 62.071 197.246C61.6514 196.953 61.1634 196.777 60.6552 196.73C60.1468 196.685 59.6354 196.773 59.1708 196.985Z" fill="#FADCFF"/>
<path d="M120.809 127.8C120.433 127.841 120.079 127.993 119.789 128.237C119.499 128.481 119.288 128.806 119.181 129.171C119.075 129.536 119.078 129.925 119.191 130.288C119.304 130.651 119.521 130.972 119.815 131.211C120.108 131.45 120.466 131.596 120.842 131.63C121.218 131.664 121.595 131.585 121.926 131.402C122.258 131.22 122.528 130.943 122.703 130.606C122.878 130.269 122.95 129.887 122.91 129.508C122.886 129.256 122.813 129.01 122.694 128.787C122.575 128.563 122.413 128.366 122.217 128.206C122.021 128.047 121.796 127.929 121.554 127.859C121.312 127.789 121.058 127.769 120.809 127.8Z" fill="#FADCFF"/>
<path d="M107.262 143.674C106.887 143.715 106.532 143.867 106.242 144.111C105.953 144.355 105.742 144.68 105.635 145.045C105.529 145.41 105.532 145.799 105.645 146.162C105.757 146.525 105.974 146.847 106.268 147.086C106.562 147.325 106.919 147.47 107.295 147.504C107.671 147.538 108.049 147.459 108.38 147.277C108.711 147.094 108.981 146.817 109.156 146.48C109.331 146.143 109.403 145.761 109.363 145.383C109.337 145.131 109.262 144.888 109.142 144.665C109.022 144.443 108.86 144.247 108.665 144.088C108.469 143.93 108.245 143.812 108.004 143.741C107.764 143.669 107.511 143.647 107.262 143.674Z" fill="#FADCFF"/>
<path d="M115.29 164.645C114.914 164.685 114.559 164.837 114.269 165.08C113.979 165.324 113.768 165.649 113.661 166.014C113.554 166.379 113.557 166.768 113.67 167.132C113.782 167.495 113.999 167.817 114.293 168.056C114.587 168.295 114.944 168.44 115.32 168.475C115.696 168.509 116.074 168.43 116.405 168.247C116.736 168.065 117.007 167.788 117.182 167.451C117.357 167.113 117.429 166.732 117.389 166.353C117.362 166.102 117.287 165.858 117.167 165.636C117.047 165.415 116.885 165.219 116.69 165.06C116.495 164.901 116.271 164.783 116.031 164.712C115.791 164.641 115.539 164.618 115.29 164.645Z" fill="#FADCFF"/>
<path d="M97.6786 140.055C97.3032 140.095 96.9482 140.247 96.6583 140.491C96.3684 140.734 96.1567 141.06 96.0501 141.425C95.9434 141.79 95.9466 142.179 96.0591 142.542C96.1715 142.905 96.3884 143.227 96.6822 143.466C96.9758 143.705 97.3334 143.851 97.7093 143.885C98.0852 143.919 98.4628 143.84 98.7942 143.658C99.1255 143.475 99.396 143.198 99.5709 142.861C99.746 142.524 99.8179 142.142 99.7778 141.763C99.7513 141.512 99.676 141.269 99.5561 141.047C99.4363 140.825 99.2742 140.629 99.0793 140.47C98.8844 140.312 98.6602 140.193 98.4199 140.122C98.1797 140.051 97.9276 140.028 97.6786 140.055Z" fill="#FADCFF"/>
<path d="M136.931 135.308C136.555 135.349 136.2 135.5 135.91 135.744C135.62 135.988 135.409 136.313 135.302 136.679C135.196 137.044 135.199 137.433 135.312 137.796C135.424 138.159 135.641 138.481 135.935 138.72C136.229 138.959 136.587 139.104 136.963 139.138C137.339 139.172 137.717 139.093 138.048 138.91C138.379 138.728 138.649 138.45 138.824 138.113C138.999 137.775 139.071 137.393 139.03 137.015C139.003 136.764 138.928 136.521 138.808 136.299C138.688 136.077 138.526 135.882 138.331 135.723C138.136 135.565 137.912 135.446 137.672 135.375C137.431 135.304 137.18 135.281 136.931 135.308Z" fill="#FADCFF"/>
<path d="M125.889 150.882C125.514 150.922 125.159 151.074 124.869 151.318C124.579 151.562 124.368 151.888 124.262 152.253C124.156 152.618 124.159 153.007 124.272 153.37C124.385 153.733 124.602 154.055 124.896 154.293C125.19 154.532 125.547 154.678 125.923 154.711C126.299 154.745 126.677 154.666 127.008 154.483C127.339 154.301 127.609 154.023 127.784 153.686C127.959 153.348 128.03 152.966 127.99 152.588C127.963 152.337 127.888 152.093 127.768 151.871C127.648 151.649 127.486 151.454 127.291 151.295C127.095 151.136 126.871 151.018 126.631 150.947C126.39 150.876 126.138 150.854 125.889 150.882Z" fill="#FADCFF"/>
<path d="M145.702 158.121C145.327 158.162 144.972 158.313 144.682 158.557C144.392 158.801 144.181 159.126 144.074 159.491C143.967 159.856 143.97 160.245 144.083 160.608C144.195 160.972 144.412 161.293 144.706 161.532C145 161.771 145.357 161.917 145.733 161.951C146.109 161.985 146.487 161.906 146.818 161.724C147.149 161.542 147.42 161.265 147.595 160.927C147.77 160.59 147.842 160.208 147.801 159.83C147.775 159.578 147.7 159.335 147.58 159.113C147.46 158.891 147.298 158.695 147.103 158.537C146.908 158.378 146.684 158.26 146.444 158.188C146.203 158.117 145.951 158.094 145.702 158.121Z" fill="#FADCFF"/>
<path d="M153.931 124.994C153.556 125.034 153.201 125.186 152.911 125.43C152.621 125.674 152.409 125.999 152.303 126.364C152.196 126.729 152.199 127.118 152.312 127.481C152.424 127.844 152.641 128.166 152.935 128.405C153.228 128.644 153.586 128.79 153.962 128.824C154.338 128.858 154.715 128.779 155.047 128.597C155.378 128.415 155.648 128.137 155.824 127.8C155.999 127.463 156.071 127.081 156.03 126.702C156.007 126.45 155.934 126.205 155.815 125.981C155.696 125.758 155.534 125.56 155.339 125.401C155.143 125.242 154.917 125.124 154.676 125.054C154.434 124.984 154.181 124.964 153.931 124.994Z" fill="#FADCFF"/>
<path d="M171.678 157.3C171.302 157.341 170.947 157.492 170.657 157.736C170.368 157.98 170.156 158.305 170.049 158.67C169.943 159.035 169.946 159.424 170.058 159.787C170.171 160.151 170.387 160.472 170.681 160.711C170.975 160.95 171.332 161.096 171.708 161.13C172.084 161.164 172.462 161.085 172.793 160.903C173.125 160.721 173.395 160.444 173.57 160.106C173.745 159.769 173.817 159.387 173.777 159.009C173.723 158.502 173.471 158.037 173.078 157.716C172.684 157.396 172.181 157.246 171.678 157.3Z" fill="#FADCFF"/>
<path d="M171.746 139.371C171.995 139.344 172.236 139.269 172.456 139.148C172.676 139.027 172.871 138.864 173.028 138.667C173.186 138.47 173.303 138.244 173.373 138.002C173.444 137.759 173.466 137.505 173.44 137.254C173.373 136.757 173.117 136.307 172.726 135.997C172.335 135.688 171.839 135.545 171.345 135.598C170.851 135.652 170.397 135.898 170.08 136.284C169.762 136.669 169.607 137.165 169.646 137.664C169.673 137.916 169.748 138.159 169.868 138.381C169.988 138.603 170.149 138.799 170.345 138.957C170.54 139.116 170.764 139.234 171.004 139.305C171.245 139.376 171.497 139.398 171.746 139.371Z" fill="#FADCFF"/>
<path d="M192.439 161.365C192.064 161.405 191.709 161.557 191.418 161.801C191.129 162.044 190.916 162.37 190.811 162.735C190.704 163.1 190.708 163.489 190.82 163.852C190.933 164.215 191.149 164.537 191.443 164.776C191.736 165.015 192.095 165.161 192.469 165.195C192.846 165.229 193.223 165.15 193.555 164.968C193.887 164.785 194.156 164.508 194.331 164.171C194.506 163.834 194.578 163.452 194.538 163.073C194.511 162.822 194.436 162.579 194.317 162.357C194.197 162.135 194.035 161.939 193.84 161.78C193.644 161.622 193.421 161.503 193.18 161.432C192.941 161.361 192.687 161.338 192.439 161.365Z" fill="#FADCFF"/>
<path d="M194.81 141.012C194.435 141.052 194.079 141.204 193.789 141.448C193.499 141.692 193.287 142.017 193.182 142.382C193.075 142.748 193.078 143.137 193.191 143.5C193.303 143.863 193.521 144.185 193.814 144.424C194.108 144.663 194.465 144.808 194.842 144.842C195.218 144.876 195.595 144.797 195.927 144.614C196.257 144.432 196.529 144.154 196.703 143.817C196.878 143.479 196.95 143.097 196.909 142.719C196.882 142.467 196.807 142.224 196.687 142.002C196.568 141.781 196.405 141.585 196.211 141.426C196.014 141.268 195.791 141.15 195.55 141.079C195.311 141.007 195.058 140.985 194.81 141.012Z" fill="#FADCFF"/>
<path d="M211.742 134.182C211.703 133.803 211.551 133.445 211.31 133.153C211.067 132.86 210.746 132.647 210.384 132.539C210.021 132.432 209.636 132.435 209.275 132.548C208.915 132.662 208.597 132.88 208.36 133.177C208.122 133.473 207.978 133.833 207.944 134.212C207.91 134.592 207.988 134.972 208.169 135.307C208.351 135.641 208.625 135.913 208.959 136.09C209.293 136.266 209.673 136.339 210.048 136.298C210.298 136.272 210.539 136.196 210.759 136.075C210.978 135.954 211.173 135.791 211.33 135.594C211.487 135.397 211.605 135.172 211.676 134.929C211.746 134.687 211.769 134.433 211.742 134.182Z" fill="#FADCFF"/>
<path d="M268.266 27.3208C268.059 24.6728 266.924 22.1857 265.062 20.3069C263.198 18.428 260.733 17.2805 258.107 17.0706C255.482 16.8606 252.868 17.602 250.735 19.1615C248.602 20.7209 247.092 22.9963 246.475 25.5784C243.415 24.1425 240.04 23.5253 236.675 23.7863C233.31 24.0473 230.07 25.1777 227.264 27.0686C224.458 28.9595 222.183 31.547 220.656 34.5821C219.13 37.6173 218.405 40.9975 218.55 44.3974C222.629 43.2824 226.822 42.6404 231.045 42.484C231.274 43.8829 231.589 45.2657 231.993 46.624C232.366 47.4772 232.941 47.5456 233.956 45.9742C236.227 42.6622 240.832 47.785 235.447 51.7468C237.771 55.8032 240.723 59.4585 244.193 62.5738C248.447 61.1921 252.11 58.3961 254.584 54.6428C257.056 50.8896 258.193 46.4013 257.809 41.9116C257.74 41.0877 257.62 40.2691 257.452 39.46C257.697 39.4612 257.94 39.4474 258.182 39.4186C259.632 39.2918 261.044 38.8786 262.334 38.2019C263.627 37.5255 264.773 36.599 265.708 35.4757C266.645 34.3523 267.354 33.0539 267.791 31.6546C268.23 30.2555 268.391 28.7827 268.266 27.3208Z" fill="#FADCFF"/>
<path d="M124.738 207.265L125.111 221.125L129.948 216.721C127.838 213.792 126.089 210.619 124.738 207.265Z" fill="#FADCFF"/>
<path d="M155.829 143.982L160.637 150.882L160.909 159.727L155.829 143.982Z" fill="#FADCFF"/>
<path d="M147.53 97.229C148.119 97.1202 148.651 96.8034 149.029 96.3356C149.408 95.8676 149.61 95.2792 149.597 94.6753C149.585 94.0714 149.36 93.4916 148.963 93.0396C148.565 92.5878 148.021 92.2932 147.428 92.2088C147.887 91.8707 148.22 91.3867 148.372 90.8348C148.525 90.2829 148.489 89.6952 148.27 89.1664C148.051 88.6377 147.662 88.1987 147.165 87.9203C146.669 87.6418 146.094 87.5399 145.533 87.6314C145.82 87.1502 145.942 86.5868 145.88 86.0286C145.817 85.4705 145.574 84.9486 145.188 84.544C144.801 84.1394 144.293 83.8746 143.742 83.7907C143.192 83.7068 142.629 83.8085 142.141 84.08C142.258 83.507 142.176 82.9112 141.91 82.3916C141.644 81.8721 141.209 81.4601 140.678 81.2246C140.147 80.989 139.552 80.944 138.993 81.0972C138.433 81.2502 137.942 81.592 137.602 82.0658C137.547 81.4502 137.281 80.8731 136.85 80.4341C136.418 79.995 135.849 79.7216 135.238 79.6608C134.628 79.6001 134.017 79.7558 133.508 80.1011C133 80.4465 132.627 80.9598 132.454 81.5528C132.214 81.0209 131.802 80.5878 131.284 80.3255C130.766 80.0633 130.175 79.9877 129.609 80.1113C129.043 80.2352 128.536 80.5507 128.172 81.0056C127.809 81.4604 127.611 82.0271 127.611 82.6112C127.189 82.2447 126.658 82.0285 126.102 81.9959C125.545 81.9632 124.994 82.1158 124.532 82.4303C124.07 82.7447 123.723 83.2035 123.545 83.7362C123.367 84.2688 123.368 84.8455 123.547 85.3778C123.02 85.1801 122.443 85.1652 121.907 85.3356C121.371 85.5061 120.907 85.8521 120.588 86.3188C120.269 86.7855 120.114 87.3462 120.146 87.912C120.179 88.4777 120.399 89.0163 120.769 89.4422C120.172 89.409 119.582 89.5901 119.103 89.9532C118.625 90.3162 118.29 90.8379 118.156 91.4263C118.022 92.0145 118.099 92.6316 118.373 93.1683C118.647 93.7053 119.1 94.1272 119.652 94.3598C119.065 94.4744 118.537 94.7955 118.163 95.2659C117.789 95.7362 117.592 96.3252 117.609 96.9278C117.625 97.5306 117.853 98.1081 118.252 98.557C118.651 99.0061 119.195 99.2977 119.788 99.38C119.339 99.7236 119.016 100.209 118.872 100.758C118.728 101.308 118.771 101.89 118.993 102.413C119.215 102.935 119.604 103.368 120.098 103.641C120.592 103.915 121.163 104.014 121.719 103.923C121.438 104.407 121.323 104.97 121.391 105.526C121.459 106.082 121.707 106.6 122.096 107C122.485 107.4 122.994 107.66 123.544 107.739C124.094 107.819 124.654 107.714 125.139 107.44C125.027 108.012 125.112 108.605 125.381 109.121C125.65 109.637 126.086 110.044 126.616 110.276C127.146 110.507 127.739 110.549 128.296 110.393C128.853 110.237 129.34 109.894 129.677 109.42C129.706 109.847 129.84 110.259 130.066 110.621C130.293 110.982 130.604 111.281 130.973 111.491C131.343 111.701 131.758 111.815 132.182 111.824C132.606 111.832 133.025 111.734 133.402 111.539C133.707 111.163 137.864 106.006 139.33 104.127C135.74 100.03 138.719 97.3658 140.651 100.064C141.666 101.533 143.15 101.122 142.275 96.7502C143.397 96.258 144.473 95.664 145.488 94.9754C146.202 97.7402 146.738 100.098 147.18 102.078C147.694 101.942 148.154 101.648 148.493 101.236C148.833 100.823 149.037 100.314 149.075 99.7797C149.114 99.2451 148.986 98.7118 148.709 98.2544C148.432 97.797 148.019 97.4385 147.53 97.229Z" fill="#FADCFF"/>
<path d="M147.191 102.078C146.752 100.098 146.21 97.7418 145.499 94.9752C144.484 95.6639 143.408 96.2579 142.286 96.75C143.168 101.122 141.688 101.524 140.662 100.064C138.752 97.3494 135.751 100.03 139.341 104.126C137.884 106.006 133.718 111.163 133.413 111.539C133.036 111.734 132.617 111.832 132.193 111.824C131.769 111.815 131.354 111.701 130.985 111.491C130.616 111.281 130.304 110.982 130.077 110.62C129.851 110.259 129.717 109.847 129.688 109.42C129.351 109.894 128.864 110.237 128.307 110.393C127.75 110.548 127.157 110.507 126.627 110.276C126.097 110.044 125.661 109.637 125.392 109.121C125.124 108.605 125.038 108.012 125.15 107.44C124.665 107.714 124.105 107.819 123.555 107.739C123.005 107.66 122.496 107.4 122.107 107C121.718 106.6 121.47 106.082 121.402 105.526C121.334 104.97 121.449 104.406 121.73 103.923C121.174 104.014 120.603 103.915 120.109 103.641C119.615 103.367 119.226 102.935 119.004 102.412C118.782 101.89 118.739 101.308 118.883 100.758C119.028 100.209 119.35 99.7234 119.799 99.3798C119.206 99.2976 118.662 99.006 118.263 98.5569C117.864 98.1078 117.636 97.5305 117.62 96.9277C117.604 96.325 117.8 95.7359 118.174 95.2656C118.548 94.7954 119.076 94.4743 119.663 94.3596C119.111 94.1271 118.658 93.705 118.384 93.1682C118.11 92.6314 118.034 92.0144 118.167 91.4262C118.301 90.8377 118.637 90.3159 119.115 89.9529C119.593 89.59 120.183 89.4089 120.781 89.442C120.41 89.0161 120.19 88.4776 120.158 87.9118C120.125 87.3459 120.28 86.7852 120.599 86.3187C120.918 85.8519 121.382 85.506 121.918 85.3355C122.454 85.165 123.031 85.1798 123.558 85.3776C123.384 84.8468 123.387 84.2733 123.566 83.7443C123.746 83.2155 124.092 82.7601 124.551 82.4478C125.011 82.1355 125.559 81.9834 126.113 82.0143C126.666 82.0455 127.195 82.2582 127.617 82.62C127.617 82.0359 127.815 81.4691 128.178 81.0142C128.542 80.5596 129.049 80.2438 129.615 80.1202C130.181 79.9965 130.772 80.0719 131.29 80.3342C131.807 80.5965 132.22 81.0297 132.46 81.5616C132.633 80.9687 133.006 80.4553 133.514 80.1099C134.022 79.7645 134.634 79.6088 135.244 79.6696C135.854 79.7305 136.424 80.0039 136.856 80.4429C137.287 80.8819 137.553 81.459 137.608 82.0746C137.948 81.6009 138.439 81.259 138.998 81.1059C139.558 80.9529 140.153 80.9979 140.684 81.2335C141.215 81.4689 141.65 81.8808 141.916 82.4004C142.182 82.9201 142.264 83.5159 142.147 84.0888C142.635 83.8174 143.198 83.7157 143.748 83.7996C144.299 83.8834 144.807 84.1482 145.193 84.5529C145.58 84.9575 145.823 85.4793 145.886 86.0375C145.948 86.5957 145.826 87.1591 145.539 87.6402C146.1 87.5488 146.675 87.6505 147.171 87.9289C147.668 88.2074 148.057 88.6464 148.276 89.1753C148.495 89.7039 148.531 90.2916 148.378 90.8437C148.226 91.3956 147.893 91.8796 147.434 92.2176C148.027 92.302 148.571 92.5965 148.969 93.0485C149.366 93.5005 149.591 94.0803 149.603 94.684C149.615 95.2879 149.414 95.8765 149.035 96.3445C148.657 96.8123 148.125 97.1289 147.536 97.2378C148.022 97.4486 148.431 97.8068 148.706 98.2626C148.981 98.7183 149.108 99.2493 149.071 99.7814C149.033 100.314 148.831 100.821 148.495 101.232C148.158 101.644 147.702 101.939 147.191 102.078Z" stroke="#272727" stroke-width="1.4" stroke-linecap="round" stroke-linejoin="round"/>
<path d="M147.598 88.0761L156.675 87.3255C157.759 87.2301 158.85 87.3516 159.887 87.6833C160.924 88.0149 161.886 88.55 162.717 89.2578C163.548 89.9657 164.232 90.8322 164.729 91.8075C165.227 92.7829 165.528 93.848 165.616 94.9413L168.088 124.891" stroke="#272727" stroke-width="1.4" stroke-linecap="round" stroke-linejoin="round"/>
<path d="M161.247 159.248L162.635 159.145C163.848 159.132 165.032 158.777 166.055 158.121" stroke="#272727" stroke-width="1.4" stroke-linecap="round" stroke-linejoin="round"/>
<path d="M98.3895 164.569L80.1701 166.14C77.9836 166.325 75.8141 165.626 74.1378 164.199C72.4617 162.771 71.4162 160.731 71.2308 158.526L66.5898 103.336C66.4059 101.131 67.0983 98.9419 68.5145 97.2511C69.9308 95.5604 71.9551 94.506 74.1421 94.32L118.691 90.5352" stroke="#272727" stroke-width="1.4" stroke-linecap="round" stroke-linejoin="round"/>
<path d="M157.048 271.505L265.557 262.283C268.52 262.028 271.261 260.597 273.179 258.304C275.097 256.01 276.035 253.044 275.785 250.056L269.485 175.435C269.232 172.447 267.813 169.683 265.539 167.749C263.266 165.816 260.325 164.87 257.362 165.121L199.385 170.041" stroke="#272727" stroke-width="1.4" stroke-linecap="round" stroke-linejoin="round"/>
<path d="M160.265 173.387L178.282 171.85" stroke="#272727" stroke-width="1.4" stroke-linecap="round" stroke-linejoin="round"/>
<path d="M218.72 50.3999L185.258 53.3033C182.194 53.6482 179.389 55.2039 177.459 57.6296C175.529 60.0555 174.632 63.1534 174.962 66.2453L181.669 144.077" stroke="#272727" stroke-width="1.4" stroke-linecap="round" stroke-linejoin="round"/>
<path d="M205.85 155.491L307.349 146.646C309.601 146.441 311.742 145.555 313.487 144.105C315.233 142.655 316.504 140.708 317.136 138.517" stroke="#272727" stroke-width="1.4" stroke-linecap="round" stroke-linejoin="round"/>
<path d="M313.884 89.75L310.869 54.4034C310.668 51.298 309.254 48.4 306.937 46.3448C304.618 44.2896 301.587 43.2447 298.508 43.4396L257.632 46.9928" stroke="#272727" stroke-width="1.4" stroke-linecap="round" stroke-linejoin="round"/>
<path d="M276.731 100.03C273.243 105.561 265.894 121.716 261.627 132.199C269.82 135.429 276.724 141.301 281.262 148.9" stroke="#272727" stroke-width="1.4" stroke-linecap="round" stroke-linejoin="round"/>
<path d="M222.173 117.72C223.412 124.152 225.029 130.504 227.015 136.743C225.152 143.811 224.408 150.095 223.528 153.954" stroke="#272727" stroke-width="1.4" stroke-linecap="round" stroke-linejoin="round"/>
<path d="M225.423 91.4238C222.865 95.4002 221.373 99.9767 221.089 104.708" stroke="#272727" stroke-width="1.4" stroke-linecap="round" stroke-linejoin="round"/>
<path d="M261.593 132.233C252.043 139.167 233.991 142.853 227.015 136.742" stroke="#272727" stroke-width="1.4" stroke-linecap="round" stroke-linejoin="round"/>
<path d="M257.259 134.863C262.353 138.881 266.435 144.052 269.177 149.958" stroke="#272727" stroke-width="1.4" stroke-linecap="round" stroke-linejoin="round"/>
<path d="M233.033 66.7605C234.032 64.6183 234.623 62.306 234.775 59.9438C233.725 61.1048 232.74 62.0876 231.824 62.9408" stroke="#272727" stroke-width="1.4" stroke-linecap="round" stroke-linejoin="round"/>
<path d="M271.889 109.183L284.014 129.843C293.394 146.988 312.931 152.381 325.196 126.77C330.985 114.68 333.73 106.553 338.81 98.1505C330.503 95.7622 322.938 91.2718 316.837 85.1059C311.198 93.6638 306.184 102.623 301.832 111.913C277.279 59.2867 274.264 68.5657 257.907 67.6531C252.916 67.5143 248.109 65.7263 244.225 62.5645" stroke="#272727" stroke-width="1.4" stroke-linecap="round" stroke-linejoin="round"/>
<path d="M208.458 109.591C213.301 92.9937 224.15 85.3221 228.912 80.0859C231.153 77.9187 232.647 75.0835 233.17 71.9974C233.694 68.9111 233.223 65.7368 231.825 62.9409C223.291 70.5225 218.584 64.4781 218.584 44.4009" stroke="#272727" stroke-width="1.4" stroke-linecap="round" stroke-linejoin="round"/>
<path d="M259.968 67.7217C253.18 73.2228 247.054 79.5056 241.713 86.4417C240.876 87.4923 239.783 88.3063 238.541 88.8036C237.299 89.301 235.949 89.465 234.625 89.2794C233.302 89.0938 232.047 88.5651 230.987 87.7451C229.927 86.925 229.095 85.8414 228.574 84.6003C228.138 83.5743 227.76 82.6203 227.422 81.6969" stroke="#272727" stroke-width="1.4" stroke-linecap="round" stroke-linejoin="round"/>
<path d="M301.827 111.914L297.798 121.067" stroke="#272727" stroke-width="1.4" stroke-linecap="round" stroke-linejoin="round"/>
<path d="M133.408 111.539C128.674 117.659 125.323 117.258 116.407 121.272C98.2539 129.435 104.485 162.151 104.485 162.151" stroke="#272727" stroke-width="1.4" stroke-linecap="round" stroke-linejoin="round"/>
<path d="M147.191 102.078C148.671 108.996 148.537 111.643 147.565 113.074C146.851 114.135 143.975 114.475 141.367 114.475" stroke="#272727" stroke-width="1.4" stroke-linecap="round" stroke-linejoin="round"/>
<path d="M147.875 112.5C146.927 114.48 143.332 112.5 139.741 109.87C140.419 113.013 140.892 116.779 143.432 116.939C165.948 118.363 168.326 120.935 187.866 154.739" stroke="#272727" stroke-width="1.4" stroke-linecap="round" stroke-linejoin="round"/>
<path d="M185.462 150.539C186.308 148.149 191.558 137.253 194.606 127.418C201.282 126.694 207.992 128.455 213.47 132.37C211.369 142.41 205.275 157.644 200.024 168.84C199.131 170.732 197.805 172.383 196.154 173.656C194.503 174.93 192.577 175.789 190.531 176.162C188.487 176.536 186.383 176.414 184.394 175.806C182.406 175.197 180.589 174.121 179.095 172.665C170.327 163.971 162.536 154.329 155.863 143.913" stroke="#272727" stroke-width="1.4" stroke-linecap="round" stroke-linejoin="round"/>
<path d="M155.897 143.914L160.909 159.727" stroke="#272727" stroke-width="1.4" stroke-linecap="round" stroke-linejoin="round"/>
<path d="M118.881 172.637C128.94 175.877 146.144 174.651 159.59 170.963C161.621 166.932 160.775 151.019 160.775 151.019" stroke="#272727" stroke-width="1.4" stroke-linecap="round" stroke-linejoin="round"/>
<path d="M118.778 171.85C114.444 178.134 105.926 178.366 102.013 171.816C97.0829 163.536 94.9695 151.735 93.9199 138.62C93.9199 138.62 101.595 136.143 104.808 137.114" stroke="#272727" stroke-width="1.4" stroke-linecap="round" stroke-linejoin="round"/>
<path d="M129.948 216.72L94.1859 248.652C91.8203 250.751 88.7808 251.914 85.6302 251.926C82.4797 251.937 79.4315 250.798 77.0499 248.719L41.8658 218.023" stroke="#272727" stroke-width="1.4" stroke-linecap="round" stroke-linejoin="round"/>
<path d="M89.145 222.907L62.5253 197.601" stroke="#272727" stroke-width="1.4" stroke-linecap="round" stroke-linejoin="round"/>
<path d="M113.325 138.382C113.325 138.382 119.215 162.322 118.846 173.25C111.68 177.357 106.143 183.838 103.173 191.59C98.8483 203.375 83.8686 217.716 83.8686 217.716" stroke="#272727" stroke-width="1.4" stroke-linecap="round" stroke-linejoin="round"/>
<path d="M159.588 170.962C166.225 193.741 166.885 208.942 167.342 231C167.707 237.253 166.858 243.517 164.843 249.442L149.333 293.429C139.848 292.425 130.729 289.185 122.714 283.97L138.225 239.163C138.524 231.509 135.978 224.019 131.085 218.16C126.242 212.211 123.208 204.975 122.348 197.327" stroke="#272727" stroke-width="1.4" stroke-linecap="round" stroke-linejoin="round"/>
<path d="M125.62 117.618C125.62 117.618 131.037 123.628 143.907 116.968" stroke="#272727" stroke-width="1.4" stroke-linecap="round" stroke-linejoin="round"/>
<path d="M96.5957 137.835C96.4898 132.624 95.9115 127.434 94.8678 122.33C93.8689 118.401 92.4375 114.598 90.5998 110.99C87.9045 105.691 88.7791 104.256 93.1078 109.078C97.3823 114.489 100.903 120.464 103.571 126.837" stroke="#272727" stroke-width="1.4" stroke-linecap="round" stroke-linejoin="round"/>
<path d="M102.068 123.462C104.219 125.921 105.506 118.422 106.315 116.763C107.432 114.475 108.814 111.984 108.719 119.018C108.693 120.964 108.923 124.073 109.228 127.145" stroke="#272727" stroke-width="1.4" stroke-linecap="round" stroke-linejoin="round"/>
<path d="M92.8362 116.012C91.8545 114.919 89.6232 112.736 88.9753 112.118C86.0158 109.264 85.4267 110.27 85.7623 110.858C87.0475 113.13 89.4572 116.629 90.5818 118.778C92.3811 122.26 96.0332 128.887 96.2367 132.302" stroke="#272727" stroke-width="1.4" stroke-linecap="round" stroke-linejoin="round"/>
<path d="M90.466 118.573C89.8894 118.165 89.4128 117.828 89.1451 117.652C85.7143 115.396 85.3519 116.422 85.7536 116.932C87.3797 118.98 90.3321 122.015 91.7833 123.966C93.4871 126.37 94.9609 128.932 96.1851 131.616" stroke="#272727" stroke-width="1.4" stroke-linecap="round" stroke-linejoin="round"/>
<path d="M211.88 131.243C213.697 125.781 215.985 120.49 218.722 115.432C221.037 111.615 223.775 108.074 226.883 104.879C231.445 100.199 230.988 98.3556 224.851 102.01C218.591 106.321 212.94 111.467 208.053 117.31" stroke="#272727" stroke-width="1.4" stroke-linecap="round" stroke-linejoin="round"/>
<path d="M210.9 114.07C207.483 116.639 208.744 107.865 208.424 105.801C207.994 103.032 207.375 99.9274 205.172 107.406C204.563 109.453 202.089 115.796 197.425 127.246" stroke="#272727" stroke-width="1.4" stroke-linecap="round" stroke-linejoin="round"/>
<path d="M222.884 109.42C224.273 108.567 227.322 107.03 228.202 106.587C232.266 104.537 232.532 105.831 232.029 106.313C229.946 108.31 226.274 111.2 224.409 113.108C221.399 116.188 215.4 121.988 214.045 125.541" stroke="#272727" stroke-width="1.4" stroke-linecap="round" stroke-linejoin="round"/>
<path d="M224.578 112.939C225.323 112.7 225.933 112.497 226.272 112.399C230.613 111.058 230.672 112.362 230.065 112.776C227.684 114.396 223.6 116.64 221.428 118.239C218.857 120.22 216.478 122.438 214.316 124.865" stroke="#272727" stroke-width="1.4" stroke-linecap="round" stroke-linejoin="round"/>
<path d="M50.096 185.852C44.0681 177.12 7.11672 207.243 8.99454 217.215C9.2855 218.76 10.61 220.142 13.6998 219.719C25.5755 218.097 54.5496 192.314 50.096 185.852Z" stroke="#272727" stroke-width="1.4" stroke-linecap="round" stroke-linejoin="round"/>
<path d="M50.0962 185.852C51.958 188.242 58.359 195.961 62.9322 201.692" stroke="#272727" stroke-width="1.4" stroke-linecap="round" stroke-linejoin="round"/>
<path d="M145.601 292.952C144.173 298.381 136.158 310.297 142.315 325.566C145.469 333.386 147.293 344.789 143.029 347.658" stroke="#272727" stroke-width="1.4" stroke-linecap="round" stroke-linejoin="round"/>
<path d="M117.559 304.427C118.573 302.123 122.259 293.717 125.552 285.887" stroke="#272727" stroke-width="1.4" stroke-linecap="round" stroke-linejoin="round"/>
<path d="M118.642 303.401C111.07 307.031 131.283 344.36 140.555 347.765C143.116 348.707 144.341 346.865 144.239 344.124C143.818 332.719 124.495 300.6 118.642 303.401Z" stroke="#272727" stroke-width="1.4" stroke-linecap="round" stroke-linejoin="round"/>
<path d="M59.1392 196.985C59.6035 196.772 60.1145 196.684 60.6227 196.729C61.1309 196.774 61.6186 196.952 62.0382 197.246C62.4579 197.537 62.7951 197.935 63.0168 198.398C63.2386 198.862 63.3373 199.375 63.3036 199.888C62.7431 207.088 49.4788 219.422 43.5151 218.695C41.7301 218.475 40.5984 217.202 41.1946 214.78" stroke="#272727" stroke-width="1.4" stroke-linecap="round" stroke-linejoin="round"/>
<path d="M147.222 280.714L157.616 247.563C159.419 242.383 160.179 236.891 159.851 231.41C158.41 207.677 156.668 189.335 152.434 172.636" stroke="#272727" stroke-width="1.4" stroke-linecap="round" stroke-linejoin="round"/>
<path d="M126.939 271.743C134.627 277.641 143.938 280.995 153.592 281.34" stroke="#272727" stroke-width="1.4" stroke-linecap="round" stroke-linejoin="round"/>
<path d="M51.8901 226.766C62.1521 223.452 67.9105 215.966 71.3645 206.207" stroke="#272727" stroke-width="1.4" stroke-linecap="round" stroke-linejoin="round"/>
<path d="M124.738 207.265L95.9173 233.015C93.5467 235.145 90.4859 236.327 87.3113 236.34C84.1365 236.353 81.0665 235.195 78.6796 233.084L63.4732 219.627" stroke="#272727" stroke-width="1.4" stroke-linecap="round" stroke-linejoin="round"/>
<path d="M129.615 181.719C129.175 181.788 128.531 190.395 129.682 193.878C131.885 196.947 134.7 199.519 137.947 201.426C139.804 198.306 142.034 195.426 144.585 192.854C144.246 188.516 143.839 186.228 143.366 181.651C138.807 182.308 134.18 182.331 129.615 181.719Z" stroke="#272727" stroke-width="1.4" stroke-linecap="round" stroke-linejoin="round"/>
<path d="M110.413 179.979C112.152 180.004 113.859 180.448 115.392 181.276C112.275 182.812 109.126 190.636 109.126 190.636L102.183 193.984" stroke="#272727" stroke-width="1.4" stroke-linecap="round" stroke-linejoin="round"/>
<path d="M330.749 68.3999C336.104 70.1063 339.081 72.8729 342.53 77.3135" stroke="#272727" stroke-width="1.4" stroke-linecap="round" stroke-linejoin="round"/>
<path d="M329.43 70.9326C331.299 72.8453 332.752 75.1297 333.696 77.64C334.64 80.1502 335.054 82.8313 334.915 85.5126" stroke="#272727" stroke-width="1.4" stroke-linecap="round" stroke-linejoin="round"/>
<path d="M339.724 73.9367C341.802 71.1762 343.54 68.1717 344.9 64.9889C347.399 59.0813 348.931 60.7211 347.542 66.3209C347.169 67.8239 346.798 69.1217 346.459 70.2143C345.481 73.3571 344.517 76.5305 343.613 79.7093C342.655 83.0861 336.295 97.3655 336.295 97.3655C330.335 95.7599 324.137 91.3895 319.295 87.3593C319.396 87.1541 321.972 82.3751 322.07 82.2023C322.595 81.247 322.818 80.1532 322.709 79.0669C322.6 77.9808 322.165 76.9539 321.462 76.1237C319.013 73.1609 315.733 68.7437 316.821 67.5503C318.507 65.7017 323.83 71.9531 326.676 72.3329C327.691 72.4679 328.505 69.3611 328.673 68.2343C328.98 66.1859 330.049 59.2163 330.13 58.5359C330.867 52.2035 333.11 53.2763 333.077 58.8761C333.043 64.2041 333.043 67.6529 333.043 67.6529" stroke="#272727" stroke-width="1.4" stroke-linecap="round" stroke-linejoin="round"/>
<path d="M332.612 69.0195C332.612 69.0195 336.306 57.3411 336.539 56.5545C338.376 50.4435 340.302 51.8421 339.385 57.3393C338.507 62.6007 337.555 69.0195 337.555 69.0195" stroke="#272727" stroke-width="1.4" stroke-linecap="round" stroke-linejoin="round"/>
<path d="M336.65 70.8984C338.417 67.3266 339.977 63.6544 341.323 59.9004C343.519 53.8884 345.132 55.4238 344.101 60.8922C343.535 64.2918 342.732 67.647 341.696 70.9326" stroke="#272727" stroke-width="1.4" stroke-linecap="round" stroke-linejoin="round"/>
<path d="M299.761 175.743C299.854 176.559 299.785 177.384 299.558 178.173C299.331 178.961 298.953 179.697 298.444 180.337C297.934 180.978 297.303 181.509 296.589 181.901C295.875 182.295 295.09 182.542 294.281 182.626C293.471 182.713 292.653 182.635 291.873 182.401C291.093 182.166 290.367 181.779 289.737 181.258C289.107 180.738 288.585 180.099 288.202 179.375C287.818 178.651 287.58 177.858 287.502 177.041L286.52 167.681C286.365 166.049 286.854 164.422 287.882 163.153C288.912 161.883 290.395 161.075 292.013 160.904C293.628 160.733 295.247 161.213 296.514 162.239C297.782 163.265 298.596 164.755 298.78 166.383L299.761 175.743Z" stroke="#272727" stroke-width="1.4" stroke-linecap="round" stroke-linejoin="round"/>
<path d="M282.49 173.284L282.963 177.894C283.109 179.311 283.532 180.686 284.205 181.939C284.878 183.192 285.79 184.299 286.888 185.195C287.984 186.093 289.248 186.763 290.601 187.17C291.956 187.575 293.376 187.708 294.781 187.56C296.188 187.411 297.55 186.986 298.792 186.307C300.034 185.627 301.132 184.709 302.023 183.602C302.912 182.495 303.578 181.222 303.979 179.856C304.381 178.49 304.513 177.058 304.367 175.641L303.894 171.031" stroke="#272727" stroke-width="1.4" stroke-linecap="round" stroke-linejoin="round"/>
<path d="M294.783 187.56L295.697 196.166" stroke="#272727" stroke-width="1.4" stroke-linecap="round" stroke-linejoin="round"/>
<path d="M291.126 196.645L300.236 195.687" stroke="#272727" stroke-width="1.4" stroke-linecap="round" stroke-linejoin="round"/>
<path d="M268.265 27.3207C268.054 24.6793 266.919 22.1998 265.061 20.3259C263.203 18.4517 260.745 17.3054 258.124 17.0919C255.506 16.8785 252.896 17.6118 250.765 19.1607C248.632 20.7096 247.116 22.9729 246.488 25.5459C249.269 26.8395 251.711 28.7695 253.623 31.1826C255.534 33.5955 256.861 36.4249 257.496 39.4455C259.008 39.4102 260.497 39.0626 261.871 38.4241C263.246 37.7859 264.474 36.8702 265.484 35.734C266.492 34.5979 267.26 33.265 267.738 31.818C268.217 30.3709 268.395 28.8402 268.265 27.3207Z" stroke="#272727" stroke-width="1.4" stroke-linecap="round" stroke-linejoin="round"/>
<path d="M257.803 41.9039C257.376 36.7302 254.955 31.9313 251.059 28.5376C247.164 25.1439 242.103 23.4258 236.964 23.7521C231.827 24.0785 227.02 26.4232 223.577 30.2831C220.135 34.143 218.329 39.2102 218.55 44.3969C222.629 43.282 226.822 42.6399 231.045 42.4835C231.274 43.8824 231.59 45.2652 231.993 46.6235C232.366 47.4767 232.941 47.5451 233.957 45.9737C236.227 42.6617 240.833 47.7845 235.447 51.7463C237.771 55.8028 240.724 59.458 244.194 62.5733C248.447 61.19 252.11 58.3924 254.582 54.6378C257.053 50.8832 258.19 46.3938 257.803 41.9039Z" stroke="#272727" stroke-width="1.4" stroke-linecap="round" stroke-linejoin="round"/>
<path d="M31.0288 157.165L38.1063 156.447" stroke="#272727" stroke-width="1.4" stroke-linecap="round" stroke-linejoin="round"/>
<path d="M50.6371 155.15L57.7164 154.433" stroke="#272727" stroke-width="1.4" stroke-linecap="round" stroke-linejoin="round"/>
<path d="M43.0171 142.342L43.7293 149.481" stroke="#272727" stroke-width="1.4" stroke-linecap="round" stroke-linejoin="round"/>
<path d="M45.0163 162.117L45.7267 169.254" stroke="#272727" stroke-width="1.4" stroke-linecap="round" stroke-linejoin="round"/>
<path d="M33.9759 147.262L39.4951 151.769" stroke="#272727" stroke-width="1.4" stroke-linecap="round" stroke-linejoin="round"/>
<path d="M49.2485 159.795L54.7695 164.336" stroke="#272727" stroke-width="1.4" stroke-linecap="round" stroke-linejoin="round"/>
<path d="M52.8398 145.314L48.3683 150.881" stroke="#272727" stroke-width="1.4" stroke-linecap="round" stroke-linejoin="round"/>
<path d="M40.4092 160.717L35.9056 166.284" stroke="#272727" stroke-width="1.4" stroke-linecap="round" stroke-linejoin="round"/>
<path d="M195.013 75.4056L190.908 65.2968C193.418 61.5342 194.631 57.0436 194.362 52.5168C193.618 40.6368 182.677 31.4118 169.64 31.788C156.329 32.1624 145.831 42.408 146.203 54.6696C146.572 67.6134 158.58 76.8798 171.698 76.1004C176.397 75.8016 180.928 74.2255 184.81 71.5392L195.013 75.4056Z" stroke="#272727" stroke-width="1.4" stroke-linecap="round" stroke-linejoin="round"/>
<path d="M116.984 70.2488C116.358 70.8536 115.568 71.2577 114.714 71.4098C113.86 71.5619 112.98 71.4554 112.187 71.1035C111.393 70.7516 110.72 70.1702 110.254 69.4327C109.788 68.6954 109.549 67.8352 109.568 66.961C109.587 66.0869 109.862 65.2378 110.36 64.5216C110.857 63.8052 111.553 63.2535 112.362 62.9365C113.17 62.6195 114.053 62.5513 114.9 62.7403C115.746 62.9295 116.518 63.3676 117.118 63.9992C117.919 64.8472 118.355 65.9809 118.33 67.1519C118.305 68.323 117.821 69.4365 116.984 70.2488Z" stroke="#272727" stroke-width="1.4" stroke-linecap="round" stroke-linejoin="round"/>
<path d="M298.101 11.9863L299.626 30.6343" stroke="#272727" stroke-width="1.4" stroke-linecap="round" stroke-linejoin="round"/>
<path d="M308.126 20.5239L289.635 22.0953" stroke="#272727" stroke-width="1.4" stroke-linecap="round" stroke-linejoin="round"/>
<path d="M46.0316 218.398C44.7426 216.805 43.0792 215.561 41.1924 214.78C37.908 213.583 34.6861 214.641 30.8591 215.735C23.1479 217.895 14.8815 222.586 10.5439 219.348" stroke="#272727" stroke-width="1.4" stroke-linecap="round" stroke-linejoin="round"/>
<path d="M125.111 221.13L124.738 207.265" stroke="#272727" stroke-width="1.4" stroke-linecap="round" stroke-linejoin="round"/>
<path id="WhatsAppBrandIcon" d="M173.676 50.0082C174.504 49.1908 175.326 47.2835 171.876 49.5995C168.653 51.7892 165.408 53.9473 162.142 56.0736C161.644 56.2957 161.107 56.4161 160.561 56.4278C160.015 56.4395 159.473 56.3422 158.966 56.1418C156.896 55.5287 154.479 54.7113 154.479 54.7113C154.479 54.7113 152.829 53.6881 155.654 52.5982C155.654 52.5982 167.596 47.7603 171.738 46.0559C173.325 45.3748 178.709 43.195 178.709 43.195C178.709 43.195 181.195 42.2399 180.988 44.5573C180.919 45.511 180.367 48.8517 179.815 52.4619C178.985 57.5722 178.088 63.1608 178.088 63.1608C178.088 63.1608 177.95 64.7275 176.777 65C175.521 64.979 174.308 64.5478 173.327 63.7739C173.051 63.5695 168.15 60.5028 166.354 59.0042C166.171 58.882 166.023 58.7163 165.923 58.5223C165.822 58.3283 165.773 58.1125 165.78 57.8948C165.787 57.6771 165.85 57.4647 165.962 57.2773C166.074 57.0899 166.233 56.9336 166.423 56.8229C168.886 54.5986 171.304 52.3266 173.676 50.0082Z" fill="#272727"/>
<path id="TelegramBrandIcon" d="M222.147 219.443C221.775 219.256 219.358 218.137 218.986 217.95C218.614 217.763 218.242 217.763 217.87 218.137C217.498 218.51 216.755 219.63 216.383 220.003C216.197 220.376 215.825 220.376 215.453 220.19C214.152 219.63 212.85 218.883 211.734 217.95C210.805 217.017 209.875 215.897 209.131 214.777C208.945 214.404 209.131 214.031 209.317 213.844C209.503 213.657 209.689 213.284 210.061 213.097C210.247 212.911 210.433 212.537 210.433 212.351C210.619 212.164 210.619 211.791 210.433 211.604C210.247 211.418 209.317 209.178 208.945 208.245C208.759 206.938 208.388 206.938 208.016 206.938H207.086C206.714 206.938 206.156 207.312 205.97 207.498C204.855 208.618 204.297 209.925 204.297 211.418C204.483 213.097 205.041 214.777 206.156 216.27C208.202 219.256 210.805 221.683 213.966 223.176C214.895 223.549 215.639 223.922 216.569 224.109C217.498 224.482 218.428 224.482 219.544 224.296C220.845 224.109 221.961 223.176 222.705 222.056C223.077 221.309 223.077 220.563 222.891 219.816L222.147 219.443ZM226.795 202.459C219.544 195.18 207.83 195.18 200.578 202.459C194.628 208.431 193.512 217.577 197.603 224.855L195 234.374L204.855 231.761C207.644 233.254 210.619 234.001 213.594 234.001C223.82 234.001 232.002 225.789 232.002 215.524C232.188 210.671 230.142 206.005 226.795 202.459ZM221.775 228.588C219.358 230.081 216.569 231.014 213.594 231.014C210.805 231.014 208.202 230.268 205.784 228.961L205.227 228.588L199.463 230.081L200.95 224.482L200.578 223.922C196.116 216.457 198.347 207.125 205.598 202.459C212.85 197.793 222.147 200.219 226.609 207.312C231.072 214.59 229.027 224.109 221.775 228.588Z" fill="#272727"/>
</svg>
