<svg width="24" height="24" viewBox="0 0 24 24" fill="none" xmlns="http://www.w3.org/2000/svg">
<path d="M22.3096 19.6383C23.0609 20.3896 23.0609 21.5583 22.3096 22.3096C21.9339 22.6852 21.4748 22.8522 20.9739 22.8522C20.473 22.8522 20.0139 22.6852 19.6383 22.3096L12 14.6713L4.36174 22.3096C3.98608 22.6852 3.52695 22.8522 3.02608 22.8522C2.52521 22.8522 2.06608 22.6852 1.69043 22.3096C0.939127 21.5583 0.939127 20.3896 1.69043 19.6383L9.32869 12L1.69043 4.36174C0.939127 3.61043 0.939127 2.44174 1.69043 1.69043C2.44174 0.939127 3.61043 0.939127 4.36174 1.69043L12 9.32869L19.6383 1.69043C20.3896 0.939127 21.5583 0.939127 22.3096 1.69043C23.0609 2.44174 23.0609 3.61043 22.3096 4.36174L14.6713 12L22.3096 19.6383Z" fill="white"/>
</svg>
