<svg width="16" height="18" viewBox="0 0 16 18" fill="none" xmlns="http://www.w3.org/2000/svg">
<path fill-rule="evenodd" clip-rule="evenodd" d="M0.781051 0.781048C1.28115 0.280951 1.95943 0 2.66667 0H10C10.2533 0 10.4971 0.0961187 10.6823 0.268945L15.6823 4.93561C15.885 5.12473 16 5.38948 16 5.66666V15.3333C16 16.0406 15.719 16.7188 15.219 17.2189C14.7189 17.719 14.0406 18 13.3333 18H2.66667C1.19772 18 0 16.8023 0 15.3333L2.6226e-06 2.66667C2.6226e-06 1.95942 0.280954 1.28115 0.781051 0.781048ZM2.66667 2C2.48986 2 2.32029 2.07024 2.19526 2.19526C2.07024 2.32029 2 2.48986 2 2.66667L2 15.3333C2 15.6977 2.30228 16 2.66667 16H13.3333C13.5101 16 13.6797 15.9298 13.8047 15.8047C13.9298 15.6797 14 15.5101 14 15.3333V6.26666L9.52941 3.88235C9.20355 3.70856 9 3.36931 9 3V2H2.66667Z" fill="black"/>
<path d="M4 10H8V8H4V10Z" fill="black"/>
<path d="M4 12V14H12V12H4Z" fill="black"/>
</svg>
