<svg width="20" height="20" viewBox="0 0 20 20" fill="currentColor" xmlns="http://www.w3.org/2000/svg">
<g clip-path="url(#clip0_663_2972)">
<path d="M16.5706 3.76381C16.5593 3.75241 16.5471 3.74195 16.5341 3.73256C15.6959 2.85578 14.6897 2.15678 13.5755 1.67722C12.4614 1.19767 11.262 0.94739 10.0491 0.941309C10.0347 0.938324 10.0202 0.936237 10.0056 0.935059C9.99595 0.935059 9.98814 0.939746 9.97876 0.940371C8.76113 0.942797 7.55656 1.19134 6.43742 1.67105C5.31827 2.15077 4.30765 2.85177 3.46626 3.73193C3.45303 3.74132 3.4406 3.75177 3.42907 3.76318C3.42532 3.76818 3.42439 3.77412 3.42095 3.77912C1.82669 5.45854 0.937866 7.68584 0.937866 10.0015C0.937866 12.3171 1.82669 14.5444 3.42095 16.2238C3.42345 16.2276 3.42407 16.2319 3.42657 16.2354C3.42907 16.2388 3.44189 16.246 3.44876 16.2532C4.29275 17.141 5.30836 17.848 6.43393 18.3313C7.55949 18.8146 8.77154 19.0641 9.99648 19.0647C11.2214 19.0653 12.4337 18.8169 13.5597 18.3347C14.6858 17.8525 15.702 17.1464 16.5469 16.2594C16.5566 16.2521 16.5659 16.2442 16.5747 16.2357C16.5775 16.2322 16.5778 16.2279 16.5803 16.2241C18.1748 14.5447 19.0637 12.3172 19.0637 10.0015C19.0637 7.68569 18.1748 5.45826 16.5803 3.77881C16.575 3.77443 16.5744 3.7685 16.5706 3.76381ZM16.2831 15.6251C15.5079 15.0532 14.6557 14.5938 13.7519 14.2604C14.2696 13.0058 14.5616 11.6697 14.6144 10.3135H18.4297C18.3585 12.2808 17.5988 14.1607 16.2831 15.6251ZM3.71751 15.6251C2.4015 14.1605 1.64166 12.2802 1.57064 10.3126H5.39095C5.44231 11.6693 5.73314 13.0062 6.25001 14.2616C5.34646 14.5959 4.49438 15.0555 3.71876 15.6269L3.71751 15.6251ZM3.72064 4.37506C4.50801 4.95773 5.37581 5.423 6.29689 5.75631C5.76052 7.00255 5.45351 8.33538 5.39064 9.69068H1.57032C1.64158 7.72147 2.4027 5.83995 3.72064 4.37506ZM10.3184 18.2388V14.2285C11.1931 14.253 12.061 14.3895 12.9009 14.6347C12.2864 15.9948 11.4087 17.2196 10.3184 18.2388ZM9.68751 1.79881V5.77256C8.82541 5.74781 7.96989 5.61425 7.14126 5.37506C7.76229 4.0362 8.62556 2.82373 9.68751 1.79881ZM6.88126 5.95037C7.79287 6.22278 8.73642 6.37377 9.68751 6.39943V9.69006H6.02126C6.07876 8.40166 6.37017 7.13446 6.88126 5.95037ZM9.68751 10.3151V13.6035C8.72518 13.6294 7.77052 13.7828 6.84845 14.0594C6.35124 12.8706 6.07098 11.6024 6.02095 10.3147L9.68751 10.3151ZM13.1563 14.0597C12.235 13.7827 11.281 13.6292 10.3194 13.6035V10.3151H13.9847C13.934 11.6027 13.6535 12.8709 13.1563 14.0597ZM10.3184 9.69006V6.39943C11.2698 6.37304 12.2134 6.22121 13.125 5.94787C13.6361 7.13279 13.9271 8.40088 13.9838 9.69006H10.3184ZM10.3184 5.77225V1.79287C11.3812 2.81864 12.245 4.03219 12.8663 5.37225C12.0372 5.61206 11.1811 5.74645 10.3184 5.77225ZM6.5522 5.18443C5.69869 4.87952 4.89315 4.45418 4.16001 3.92131C5.47493 2.65452 7.16631 1.84996 8.97876 1.62912C7.97829 2.67142 7.15824 3.87293 6.5522 5.18443ZM9.68751 14.2285V18.236C8.59624 17.2189 7.7178 15.9952 7.10314 14.636C7.94375 14.3908 8.81222 14.2538 9.68751 14.2285ZM13.5034 14.8351C14.3373 15.14 15.1249 15.559 15.8438 16.0801C14.544 17.3337 12.8753 18.1358 11.0844 18.3679C12.0947 17.3437 12.9139 16.1473 13.5034 14.8351ZM14.6147 9.69006C14.5528 8.33378 14.2463 6.99984 13.71 5.75256C14.6283 5.41946 15.4937 4.95551 16.2794 4.37506C17.5973 5.83995 18.3584 7.72147 18.4297 9.69068L14.6147 9.69006ZM15.8397 3.92131C15.1086 4.45233 14.3056 4.87668 13.455 5.18162C12.8501 3.8723 12.0322 2.67237 11.0347 1.63068C12.8421 1.85399 14.5282 2.65779 15.8397 3.92131ZM4.15626 16.0804C4.87652 15.5595 5.66521 15.1404 6.50001 14.8351C7.08885 16.1469 7.90686 17.3432 8.91564 18.3679C7.12479 18.1359 5.4561 17.3339 4.15626 16.0804Z"/>
</g>
<defs>
<clipPath id="clip0_663_2972">
<rect width="20" height="20"/>
</clipPath>
</defs>
</svg>
