<svg width="20" height="20" viewBox="0 0 20 20" fill="none" xmlns="http://www.w3.org/2000/svg">
<g clip-path="url(#clip0_1150_3946)">
<path d="M9.37434 14.6956H9.47463L9.47433 14.5953L9.45344 7.52498L9.45314 7.42527H9.35344H8.59371C8.30374 7.42527 8.06871 7.19024 8.06871 6.90027C8.06871 6.61031 8.30374 6.37527 8.59371 6.37527H9.97652C10.2659 6.37527 10.5007 6.6094 10.5015 6.89869L10.5243 14.5959L10.5246 14.6956H10.6243H11.4062C11.6962 14.6956 11.9312 14.9307 11.9312 15.2206C11.9312 15.5106 11.6962 15.7456 11.4062 15.7456H8.59367C8.3037 15.7456 8.06867 15.5106 8.06867 15.2206C8.06867 14.9306 8.3037 14.6956 8.59367 14.6956H9.37434ZM0.1 9.99996C0.1 4.5412 4.5412 0.1 9.99996 0.1C15.4587 0.1 19.8999 4.5412 19.8999 9.99996C19.8999 15.4587 15.4587 19.8999 9.99996 19.8999C4.5412 19.8999 0.1 15.4587 0.1 9.99996ZM1.15 9.99996C1.15 14.88 5.11997 18.8499 9.99996 18.8499C14.88 18.8499 18.8499 14.88 18.8499 9.99996C18.8499 5.11997 14.88 1.15 9.99996 1.15C5.11997 1.15 1.15 5.11997 1.15 9.99996ZM9.45883 4.7793C9.45883 4.48933 9.69386 4.2543 9.98383 4.2543H10.0161C10.306 4.2543 10.5411 4.48933 10.5411 4.7793C10.5411 5.06926 10.306 5.3043 10.0161 5.3043H9.98383C9.69386 5.3043 9.45883 5.06926 9.45883 4.7793Z" fill="black" stroke="#F3F3F3" stroke-width="0.2"/>
</g>
<defs>
<clipPath id="clip0_1150_3946">
<rect width="20" height="20" fill="white"/>
</clipPath>
</defs>
</svg>
