<svg width="16" height="16" viewBox="0 0 16 16" fill="none" xmlns="http://www.w3.org/2000/svg">
<path d="M1.33331 4.21658V1.33325H4.21665V2.33325H2.33331V4.21658H1.33331ZM1.33331 14.6666V11.7833H2.33331V13.6666H4.21665V14.6666H1.33331ZM11.7833 14.6666V13.6666H13.6666V11.7833H14.6666V14.6666H11.7833ZM13.6666 4.21658V2.33325H11.7833V1.33325H14.6666V4.21658H13.6666ZM11.8 11.8166H12.85V12.8666H11.8V11.8166ZM11.8 9.71658H12.85V10.7666H11.8V9.71658ZM10.75 10.7666H11.8V11.8166H10.75V10.7666ZM9.69998 11.8166H10.75V12.8666H9.69998V11.8166ZM8.64998 10.7666H9.69998V11.8166H8.64998V10.7666ZM10.75 8.66658H11.8V9.71658H10.75V8.66658ZM9.69998 9.71658H10.75V10.7666H9.69998V9.71658ZM8.64998 8.66658H9.69998V9.71658H8.64998V8.66658ZM12.85 3.13325V7.33325H8.64998V3.13325H12.85ZM7.33331 8.66658V12.8666H3.13331V8.66658H7.33331ZM7.33331 3.13325V7.33325H3.13331V3.13325H7.33331ZM6.49998 12.0333V9.49992H3.96665V12.0333H6.49998ZM6.49998 6.49992V3.96659H3.96665V6.49992H6.49998ZM12.0166 6.49992V3.96659H9.48331V6.49992H12.0166Z" fill="white"/>
</svg>
