<svg width="20" height="20" viewBox="0 0 20 20" fill="none" xmlns="http://www.w3.org/2000/svg">
<path d="M13.9283 7.74273C14.3883 7.28273 14.845 6.2094 12.9283 7.51273C11.1379 8.74496 9.33529 9.95947 7.52083 11.1561C7.24453 11.281 6.94583 11.3488 6.64266 11.3554C6.3395 11.362 6.03813 11.3072 5.75666 11.1944C4.60666 10.8494 3.26416 10.3894 3.26416 10.3894C3.26416 10.3894 2.3475 9.81356 3.91666 9.20023C3.91666 9.20023 10.5508 6.47773 12.8517 5.51856C13.7333 5.13523 16.7242 3.90856 16.7242 3.90856C16.7242 3.90856 18.105 3.37106 17.99 4.67523C17.9517 5.2119 17.645 7.0919 17.3383 9.12356C16.8775 11.9994 16.3792 15.1444 16.3792 15.1444C16.3792 15.1444 16.3025 16.0261 15.6508 16.1794C14.9532 16.1676 14.2792 15.9249 13.7342 15.4894C13.5808 15.3744 10.8583 13.6486 9.86083 12.8052C9.75936 12.7365 9.67693 12.6432 9.6212 12.5341C9.56546 12.4249 9.53824 12.3034 9.54207 12.1809C9.54589 12.0584 9.58064 11.9389 9.64307 11.8334C9.70551 11.728 9.79361 11.64 9.89917 11.5777C11.2673 10.326 12.6106 9.04742 13.9283 7.74273Z" fill="black"/>
</svg>
