<svg width="44" height="38" viewBox="0 0 44 38" fill="none" xmlns="http://www.w3.org/2000/svg">
<g clip-path="url(#clip0_30_1471)">
<path fill-rule="evenodd" clip-rule="evenodd" d="M8.17568 0.186634L0.210694 16.9171C0.180385 16.9793 0.17078 17.0496 0.183284 17.1177C0.195788 17.1858 0.229745 17.2481 0.28019 17.2955L21.7917 37.9086C21.8528 37.9672 21.9342 38 22.0188 38C22.1035 38 22.1849 37.9672 22.246 37.9086L43.7575 17.2967C43.8079 17.2493 43.8419 17.187 43.8544 17.119C43.8669 17.0509 43.8573 16.9806 43.827 16.9184L35.862 0.187921C35.8363 0.131733 35.795 0.0841345 35.7429 0.0508145C35.6909 0.0174945 35.6304 -0.000137832 35.5686 2.49057e-05H8.47168C8.40959 -0.000747478 8.34861 0.0164601 8.29609 0.0495718C8.24357 0.0826835 8.20175 0.130285 8.17568 0.186634Z" fill="#50AF95"/>
<path fill-rule="evenodd" clip-rule="evenodd" d="M24.7828 18.6351C24.6284 18.6467 23.8305 18.6943 22.0506 18.6943C20.6349 18.6943 19.6298 18.6519 19.2772 18.6351C13.8063 18.3945 9.72283 17.4421 9.72283 16.3019C9.72283 15.1616 13.8063 14.2106 19.2772 13.9661V17.6867C19.635 17.7124 20.6594 17.7729 22.075 17.7729C23.7738 17.7729 24.6245 17.7021 24.7777 17.6879V13.9686C30.2369 14.2119 34.3114 15.1642 34.3114 16.3019C34.3114 17.4396 30.2382 18.3919 24.7777 18.6339L24.7828 18.6351ZM24.7828 13.5838V10.2545H32.4016V5.17743H11.6584V10.2545H19.2759V13.5826C13.0844 13.867 8.42815 15.0934 8.42815 16.5631C8.42815 18.0329 13.0844 19.258 19.2759 19.5437V30.2126H24.7815V19.5399C30.9589 19.2555 35.6074 18.0303 35.6074 16.5619C35.6074 15.0934 30.9628 13.8683 24.7815 13.5826L24.7828 13.5838Z" fill="white"/>
</g>
<defs>
<clipPath id="clip0_30_1471">
<rect width="43.6832" height="38" fill="white" transform="translate(0.17746)"/>
</clipPath>
</defs>
</svg>
