<svg width="20" height="20" viewBox="0 0 20 20" fill="none" xmlns="http://www.w3.org/2000/svg">
<path d="M14.3333 11.6668C14.1667 11.5835 13.0833 11.0835 12.9167 11.0002C12.75 10.9168 12.5833 10.9168 12.4167 11.0835C12.25 11.2502 11.9167 11.7502 11.75 11.9168C11.6667 12.0835 11.5 12.0835 11.3333 12.0002C10.75 11.7502 10.1667 11.4168 9.66667 11.0002C9.25 10.5835 8.83334 10.0835 8.50001 9.5835C8.41667 9.41683 8.5 9.25016 8.58334 9.16683C8.66667 9.0835 8.75001 8.91683 8.91667 8.8335C9.00001 8.75016 9.08334 8.5835 9.08334 8.50016C9.16667 8.41683 9.16667 8.25016 9.08334 8.16683C9.00001 8.0835 8.58334 7.0835 8.41667 6.66683C8.33334 6.0835 8.16667 6.0835 8 6.0835H7.58334C7.41667 6.0835 7.16667 6.25016 7.08334 6.3335C6.58334 6.8335 6.33334 7.41683 6.33334 8.0835C6.41667 8.8335 6.66667 9.5835 7.16667 10.2502C8.08334 11.5835 9.25 12.6668 10.6667 13.3335C11.0833 13.5002 11.4167 13.6668 11.8333 13.7502C12.25 13.9168 12.6667 13.9168 13.1667 13.8335C13.75 13.7502 14.25 13.3335 14.5833 12.8335C14.75 12.5002 14.75 12.1668 14.6667 11.8335L14.3333 11.6668ZM16.4167 4.0835C13.1667 0.833496 7.91667 0.833496 4.66667 4.0835C2.00001 6.75016 1.50001 10.8335 3.33334 14.0835L2.16667 18.3335L6.58334 17.1668C7.83334 17.8335 9.16667 18.1668 10.5 18.1668C15.0833 18.1668 18.75 14.5002 18.75 9.91683C18.8333 7.75016 17.9167 5.66683 16.4167 4.0835ZM14.1667 15.7502C13.0833 16.4168 11.8333 16.8335 10.5 16.8335C9.25 16.8335 8.08334 16.5002 7.00001 15.9168L6.75 15.7502L4.16667 16.4168L4.83334 13.9168L4.66667 13.6668C2.66667 10.3335 3.66667 6.16683 6.91667 4.0835C10.1667 2.00016 14.3333 3.0835 16.3333 6.25016C18.3333 9.50016 17.4167 13.7502 14.1667 15.7502Z" fill="black"/>
</svg>
