<svg width="96" height="96" viewBox="0 0 96 96" fill="none" xmlns="http://www.w3.org/2000/svg">
<g clip-path="url(#clip0_906_3048)">
<path d="M82.0127 13.9509C73.8158 5.78744 62.9181 0.867981 51.3489 0.108548C39.7796 -0.650885 28.3274 2.80147 19.1249 9.82275C9.92229 16.844 3.59661 26.9556 1.32576 38.2746C-0.945093 49.5936 0.993673 61.3484 6.78103 71.3502L0 96.0001L25.3392 89.3857C32.3476 93.1852 40.2006 95.176 48.1808 95.1765H48.2011C57.6535 95.1756 66.8935 92.385 74.7531 87.1573C82.6127 81.9295 88.7391 74.4995 92.3578 65.8062C95.9766 57.1129 96.9252 47.5467 95.0838 38.3168C93.2425 29.0869 88.6938 20.6076 82.0127 13.9509ZM48.2011 87.1422H48.1856C41.0709 87.1427 34.0869 85.2388 27.965 81.6299L26.5137 80.7736L11.4753 84.6981L15.4897 70.1061L14.5437 68.6104C9.8616 61.1828 7.79166 52.4168 8.6593 43.6904C9.52694 34.9641 13.283 26.7722 19.3369 20.4025C25.3909 14.0329 33.3994 9.84674 42.1036 8.50212C50.8079 7.1575 59.7141 8.73068 67.4224 12.9743C75.1306 17.218 81.2037 23.8915 84.6869 31.9458C88.1701 40 88.866 48.9783 86.665 57.4692C84.4641 65.96 79.4912 73.482 72.5281 78.8526C65.565 84.2232 57.0066 87.1378 48.1982 87.1384L48.2011 87.1422Z" fill="#E0E0E0"/>
<path d="M2.19385 93.2651L8.66533 69.7375C3.65196 61.0775 1.6485 51.0129 2.96558 41.104C4.28265 31.1951 8.84668 21.9956 15.95 14.9319C23.0534 7.86807 32.2992 3.33461 42.254 2.03438C52.2088 0.734151 62.3164 2.73978 71.0097 7.74031C79.703 12.7408 86.4964 20.4569 90.3364 29.6922C94.1765 38.9274 94.8488 49.166 92.249 58.8203C89.6493 68.4746 83.9227 77.0054 75.9573 83.0901C67.9919 89.1747 58.2325 92.4731 48.1924 92.4741H48.1722C40.5583 92.4726 33.066 90.5733 26.3788 86.9493L2.1977 93.2613L2.19385 93.2651Z" fill="url(#paint0_linear_906_3048)"/>
<path fill-rule="evenodd" clip-rule="evenodd" d="M36.3892 27.3727C35.5049 25.4153 34.5734 25.3759 33.7325 25.3423C33.044 25.3126 32.2562 25.3145 31.4703 25.3145C30.8719 25.3302 30.2834 25.469 29.7415 25.7221C29.1997 25.9752 28.7163 26.3371 28.3218 26.7852C26.9868 28.0436 25.9298 29.565 25.2182 31.2526C24.5066 32.9402 24.156 34.7568 24.1887 36.5868C24.1887 42.3698 28.4201 47.958 29.0103 48.7423C29.6005 49.5266 37.178 61.7724 49.1779 66.4831C59.1508 70.398 61.1807 69.6194 63.3455 69.4236C65.5104 69.2278 70.33 66.581 71.3146 63.8364C72.2992 61.0918 72.2982 58.7398 72.0031 58.2482C71.708 57.7567 70.9212 57.4649 69.7399 56.8764C68.5586 56.2879 62.7554 53.4444 61.6725 53.0527C60.5895 52.661 59.8027 52.4652 59.0158 53.6422C58.2289 54.8191 55.9676 57.4639 55.2781 58.2502C54.5886 59.0364 53.9001 59.1334 52.7198 58.5458C49.2393 57.1645 46.0269 55.1907 43.2262 52.7129C40.6448 50.338 38.4315 47.5952 36.6582 44.574C35.9697 43.399 36.584 42.7615 37.177 42.174C37.7074 41.6479 38.3574 40.8022 38.9485 40.1158C39.433 39.5217 39.8301 38.8619 40.1278 38.1564C40.2851 37.8323 40.3586 37.4742 40.3418 37.1146C40.3249 36.7551 40.2182 36.4054 40.0314 36.0972C39.7334 35.5087 37.4384 29.6969 36.3892 27.3727Z" fill="white"/>
<path d="M81.6222 13.7988C73.5214 5.72357 62.748 0.855563 51.3092 0.101794C39.8704 -0.651975 28.5465 2.75991 19.4473 9.70174C10.348 16.6436 4.09412 26.6419 1.85075 37.8338C-0.392606 49.0257 1.52759 60.6479 7.25358 70.5348L0.550659 94.9063L25.5986 88.3678C32.5266 92.1237 40.2893 94.0918 48.178 94.0923H48.1982C57.5428 94.0929 66.6778 91.3352 74.4482 86.1678C82.2186 81.0003 88.2755 73.6552 91.853 65.061C95.4305 56.4669 96.368 47.0098 94.5469 37.8853C92.7259 28.7608 88.2281 20.3787 81.6222 13.7988ZM48.1982 86.1502H48.1876C41.1543 86.1508 34.2502 84.2688 28.1984 80.7012L26.7635 79.8545L11.8958 83.7339L15.8639 69.307L14.9295 67.8286C10.3013 60.486 8.2553 51.8204 9.11326 43.194C9.97123 34.5676 13.6845 26.4697 19.6692 20.1733C25.654 13.8768 33.5709 9.73881 42.1754 8.40983C50.7799 7.08086 59.5841 8.63626 67.2039 12.8315C74.8237 17.0267 80.8271 23.6239 84.2702 31.586C87.7133 39.548 88.4009 48.4234 86.225 56.817C84.0491 65.2105 79.133 72.6461 72.2496 77.955C65.3661 83.2639 56.9057 86.145 48.1982 86.1454V86.1502Z" fill="white"/>
</g>
<defs>
<linearGradient id="paint0_linear_906_3048" x1="47.9993" y1="93.2651" x2="47.9993" y2="1.64844" gradientUnits="userSpaceOnUse">
<stop stop-color="#20B038"/>
<stop offset="1" stop-color="#60D66A"/>
</linearGradient>
<clipPath id="clip0_906_3048">
<rect width="96" height="96" fill="white"/>
</clipPath>
</defs>
</svg>
